<?xml version="1.0" encoding="UTF-8"?>
<svg version="1.1" xmlns="http://www.w3.org/2000/svg" width="746" height="595">
<path d="M0 0 C246.18 0 492.36 0 746 0 C746 196.35 746 392.7 746 595 C499.82 595 253.64 595 0 595 C0 398.65 0 202.3 0 0 Z " fill="#1F1F1F" transform="translate(0,0)"/>
<path d="M0 0 C3.70818297 -0.08756305 7.41609763 -0.14058015 11.125 -0.1875 C12.17171875 -0.21263672 13.2184375 -0.23777344 14.296875 -0.26367188 C22.60626435 -0.34255848 27.7653516 1.28490563 34 7 C36.9098425 11.66999199 36.62574208 16.6773297 36 22 C33.82939739 26.42159791 31.09412717 29.27058188 27 32 C26.01 32 25.02 32 24 32 C24 32.66 24 33.32 24 34 C19.05 34 14.1 34 9 34 C9 38.95 9 43.9 9 49 C10.32 49 11.64 49 13 49 C13 50.32 13 51.64 13 53 C8.71 53 4.42 53 0 53 C0.33 51.35 0.66 49.7 1 48 C1.66 48 2.32 48 3 48 C3 34.14 3 20.28 3 6 C2.01 5.67 1.02 5.34 0 5 C0 3.35 0 1.7 0 0 Z " fill="#D6D6D6" transform="translate(380,243)"/>
<path d="M0 0 C7.92 0 15.84 0 24 0 C24 0.66 24 1.32 24 2 C24.886875 2.226875 25.77375 2.45375 26.6875 2.6875 C30.95434135 4.37813525 33.92493804 6.84987609 36 11 C36.75224506 16.65612107 36.85804699 21.60342417 33.5625 26.4375 C29.17385059 31.41948663 24.36631085 33.75694507 17.75390625 34.234375 C14.83492423 34.24812757 11.91593406 34.13406593 9 34 C9 38.95 9 43.9 9 49 C10.32 49 11.64 49 13 49 C13 50.32 13 51.64 13 53 C8.71 53 4.42 53 0 53 C0.33 51.35 0.66 49.7 1 48 C1.66 48 2.32 48 3 48 C3 33.81 3 19.62 3 5 C2.01 5 1.02 5 0 5 C0 3.35 0 1.7 0 0 Z " fill="#D5D5D5" transform="translate(323,160)"/>
<path d="M0 0 C4.30159395 1.4987454 6.09435755 4.67019013 8.375 8.375 C8.7678418 9.00349854 9.16068359 9.63199707 9.56542969 10.27954102 C21.70193219 29.97775054 26.45323447 49.37119558 26.5 72.375 C26.5023465 73.11545563 26.50469299 73.85591125 26.5071106 74.61880493 C26.48955288 88.08919052 24.70029472 100.2957144 20 113 C19.74331543 113.70560059 19.48663086 114.41120117 19.22216797 115.13818359 C8.87186402 142.45204179 -14.78809221 165.76247609 -41 178 C-70.45038466 190.55010728 -103.51100447 192.05296637 -133.5546875 180.546875 C-143.24630482 176.19553661 -152.90150911 170.91746097 -161 164 C-161 163.34 -161 162.68 -161 162 C-157.37721599 163.32321544 -154.42658912 164.94994694 -151.25 167.125 C-125.64514959 183.63203008 -95.21649223 188.15401061 -65.37084961 182.56567383 C-55.20552404 180.34138752 -46.08415673 177.09263332 -37 172 C-35.87335938 171.36964844 -34.74671875 170.73929688 -33.5859375 170.08984375 C-16.72632756 160.15965195 -3.0022895 147.1667326 6.6328125 130.109375 C7.08398438 129.41328125 7.53515625 128.7171875 8 128 C8.66 128 9.32 128 10 128 C10.27263672 126.75283203 10.27263672 126.75283203 10.55078125 125.48046875 C10.92783203 123.85044922 10.92783203 123.85044922 11.3125 122.1875 C11.55613281 121.10855469 11.79976562 120.02960938 12.05078125 118.91796875 C13.02320393 115.92866941 13.78854178 115.07288121 16 113 C18.58572454 106.87824191 19.37540212 100.55827778 20 94 C20.33 93.67 20.66 93.34 21 93 C24.49925211 72.35693002 23.95801124 47.99676362 14.79589844 28.85644531 C14 27 14 27 14 25 C13.34 25 12.68 25 12 25 C11.8040625 24.33355469 11.608125 23.66710937 11.40625 22.98046875 C9.17330138 16.09875211 6.11315165 10.96687652 1.609375 5.3125 C0 3 0 3 0 0 Z " fill="#B8B8B8" transform="translate(462,140)"/>
<path d="M0 0 C3.03031792 2.25124683 6.37615261 3.76087103 9.765625 5.38671875 C24.27849064 12.51546754 24.27849064 12.51546754 29.203125 16.63671875 C29.203125 17.62671875 29.203125 18.61671875 29.203125 19.63671875 C25.86267458 18.40144802 23.09891308 17.01359892 20.203125 14.94921875 C-3.24932922 -0.94417998 -31.20438965 -7.25769242 -59.29345703 -2.80957031 C-66.56097877 -1.35709609 -73.6935076 0.53197031 -80.796875 2.63671875 C-82.24876221 3.06670166 -82.24876221 3.06670166 -83.72998047 3.50537109 C-86.08765234 4.20932051 -88.44326134 4.91933808 -90.796875 5.63671875 C-90.796875 6.29671875 -90.796875 6.95671875 -90.796875 7.63671875 C-91.67988281 8.03761719 -92.56289063 8.43851563 -93.47265625 8.8515625 C-101.92049351 12.80634754 -108.79486342 17.39461541 -115.796875 23.63671875 C-116.57675781 24.28511719 -117.35664063 24.93351562 -118.16015625 25.6015625 C-124.47704086 30.93654794 -132.13340501 37.64630877 -134.796875 45.63671875 C-135.456875 45.63671875 -136.116875 45.63671875 -136.796875 45.63671875 C-137.02375 46.29671875 -137.250625 46.95671875 -137.484375 47.63671875 C-138.57162367 50.12185856 -139.67982587 52.03053144 -141.171875 54.26171875 C-144.26460385 59.09183352 -145.99177001 64.22140377 -147.796875 69.63671875 C-148.06371094 70.35472656 -148.33054687 71.07273437 -148.60546875 71.8125 C-153.00597698 83.91959779 -154.31692699 96.12125704 -154.24291992 108.89794922 C-154.23437767 111.13602004 -154.26337223 113.37155146 -154.29492188 115.609375 C-154.35864383 128.56563831 -151.67733013 140.16407923 -146.609375 152.13671875 C-146.3218335 152.83104004 -146.03429199 153.52536133 -145.73803711 154.24072266 C-143.2161164 160.10946032 -140.09483491 165.53682699 -136.6418457 170.90429688 C-133.796875 175.35524952 -133.796875 175.35524952 -133.796875 178.63671875 C-134.456875 178.63671875 -135.116875 178.63671875 -135.796875 178.63671875 C-137.14335715 176.68684614 -138.39874534 174.67372468 -139.609375 172.63671875 C-140.27582031 171.52296875 -140.94226563 170.40921875 -141.62890625 169.26171875 C-141.9753418 168.67455078 -142.32177734 168.08738281 -142.67871094 167.48242188 C-143.44912351 166.2107365 -144.24586319 164.95475519 -145.06347656 163.71289062 C-148.13642661 159.02612234 -150.22556234 154.47168682 -151.921875 149.13671875 C-152.17340332 148.34974609 -152.42493164 147.56277344 -152.68408203 146.75195312 C-161.18667355 119.35410152 -160.53504094 88.98048883 -148.796875 62.63671875 C-148.50151855 61.96511719 -148.20616211 61.29351562 -147.90185547 60.6015625 C-137.77494536 37.97567326 -120.74292149 20.61188059 -99.796875 7.63671875 C-98.93191406 7.09402344 -98.06695312 6.55132812 -97.17578125 5.9921875 C-89.21398579 1.29458626 -80.51248357 -1.28286197 -71.609375 -3.55078125 C-70.95638428 -3.71779541 -70.30339355 -3.88480957 -69.63061523 -4.05688477 C-51.75798457 -8.42885019 -15.70586713 -11.91597311 0 0 Z " fill="#A6A6A6" transform="translate(413.796875,102.36328125)"/>
<path d="M0 0 C0.99 0 1.98 0 3 0 C1.59457897 3.17892224 -0.06899032 5.31942135 -2.52015686 7.77183914 C-3.25441863 8.51131641 -3.9886804 9.25079367 -4.74519253 10.01267934 C-5.96005636 11.220851 -5.96005636 11.220851 -7.19946289 12.45343018 C-8.0573066 13.31439387 -8.91515032 14.17535757 -9.7989893 15.06241107 C-12.18133702 17.45136254 -14.56810101 19.83574062 -16.95684099 22.21829033 C-19.53169078 24.78862122 -22.10078654 27.36469226 -24.67062378 29.94003296 C-29.70539371 34.98370378 -34.74556509 40.02194338 -39.78768325 45.05826715 C-43.88358734 49.1496585 -47.97754006 53.24299288 -52.07009888 57.33773041 C-52.94306503 58.21115626 -52.94306503 58.21115626 -53.83366686 59.10222708 C-55.01582681 60.28502646 -56.19798227 61.46783034 -57.38013327 62.65063867 C-68.46890498 73.74511545 -79.56380246 84.83344995 -90.66079676 95.91970143 C-100.19107998 105.44104427 -109.71610054 114.9676254 -119.23730469 124.49804688 C-130.28640308 135.55783666 -141.33872368 146.61438977 -152.3962431 157.66576076 C-153.57413331 158.84301385 -154.75201933 160.02027113 -155.92990112 161.19753265 C-156.79928876 162.06645746 -156.79928876 162.06645746 -157.68623978 162.95293631 C-161.77885116 167.0438177 -165.86913069 171.13702181 -169.95852661 175.23111725 C-174.93769191 180.21587863 -179.92037797 185.19708772 -184.9076798 190.17370895 C-187.4542047 192.71496064 -189.99907281 195.25781646 -192.53966904 197.80499649 C-195.28790624 200.56024804 -198.04378114 203.30777476 -200.80053711 206.05450439 C-202.01540094 207.27606039 -202.01540094 207.27606039 -203.25480747 208.52229428 C-203.98906924 209.25134056 -204.72333101 209.98038683 -205.47984314 210.73152542 C-206.11592971 211.36728729 -206.75201628 212.00304915 -207.4073782 212.65807652 C-209 214 -209 214 -211 214 C-210.44098695 210.10828954 -208.70864869 208.33789613 -205.96514893 205.60438538 C-205.09592804 204.7310405 -204.22670715 203.85769562 -203.33114624 202.95788574 C-202.36055048 201.99790745 -201.38981202 201.03807341 -200.41894531 200.07836914 C-199.40164855 199.06191867 -198.38501208 198.044807 -197.36898804 197.02708435 C-194.60688266 194.26411713 -191.8356131 191.51050894 -189.06263828 188.75845647 C-186.16080689 185.87538447 -183.26747389 182.98380959 -180.37322998 180.09312439 C-174.88510746 174.61433368 -169.38938514 169.14323226 -163.89090037 163.67484325 C-157.65241606 157.46977838 -151.42234252 151.25629876 -145.19301462 145.04204381 C-134.53888888 134.41398595 -123.87853953 123.79220478 -113.21096802 113.17764282 C-112.33046783 112.30147812 -111.44996765 111.42531342 -110.54278564 110.52259827 C-109.78176167 109.76547074 -109.02073769 109.00834322 -108.23665237 108.22827244 C-104.73525581 104.73999435 -101.24065178 101.2449838 -97.75471497 97.74125671 C-96.86525429 96.84746056 -96.86525429 96.84746056 -95.95782471 95.93560791 C-95.32439148 95.29903259 -94.69095825 94.66245728 -94.03833008 94.0065918 C-87.13400206 87.06965786 -80.22463794 80.13776256 -73.31236744 73.2087431 C-69.13341629 69.01930825 -64.95637332 64.82800527 -60.78344727 60.63256836 C-56.7425777 56.57004542 -52.69691015 52.51235925 -48.64780235 48.45804787 C-47.104216 46.9107568 -45.56239541 45.36170218 -44.0223484 43.81088829 C-41.87731437 41.65143629 -39.72620508 39.49822289 -37.57348633 37.34643555 C-36.61422745 36.37639084 -36.61422745 36.37639084 -35.6355896 35.38674927 C-31.22810925 31 -31.22810925 31 -29 31 C-28.74476563 30.41863281 -28.48953125 29.83726562 -28.2265625 29.23828125 C-24.81878463 23.01962928 -18.33016569 18.3703795 -13.01953125 13.79296875 C-6.74458489 8.22529038 -6.74458489 8.22529038 -1.45703125 1.76171875 C-0.97621094 1.18035156 -0.49539063 0.59898438 0 0 Z " fill="#A6A6A6" transform="translate(476,105)"/>
<path d="M0 0 C7.21396597 0.00424301 11.80230475 0.49245298 17.3125 5.4375 C19.34673368 9.09912062 19.65575846 12.20280307 18.875 16.25 C16.06963631 21.75282877 11.81846078 26.26884641 5.875 28.25 C3.235 28.25 0.595 28.25 -2.125 28.25 C-2.455 34.52 -2.785 40.79 -3.125 47.25 C-4.775 47.25 -6.425 47.25 -8.125 47.25 C-8.15027002 40.71721214 -8.16783292 34.18443679 -8.17993164 27.65161133 C-8.18497317 25.42732268 -8.19180623 23.20303737 -8.20043945 20.97875977 C-8.21251298 17.78921691 -8.21822996 14.59971771 -8.22265625 11.41015625 C-8.22781754 10.40912369 -8.23297882 9.40809113 -8.23829651 8.37672424 C-8.23837204 7.45584518 -8.23844757 6.53496613 -8.23852539 5.58618164 C-8.240746 4.77121719 -8.24296661 3.95625275 -8.24525452 3.11659241 C-7.95863578 -1.33230792 -3.53534334 0.04151088 0 0 Z " fill="#343434" transform="translate(385.125,371.75)"/>
<path d="M0 0 C18.25 0 18.25 0 23.875 4.5 C26.53685706 8.04914275 26.21579212 11.75608823 26 16 C25.4341403 19.20653829 25.05421551 21.24166102 22.34375 23.19140625 C20.5845205 24.16835542 18.79328019 25.08705736 17 26 C16.67 26.66 16.34 27.32 16 28 C13 29 13 29 5 29 C5 34.94 5 40.88 5 47 C3.35 47 1.7 47 0 47 C0 31.49 0 15.98 0 0 Z " fill="#292929" transform="translate(241,372)"/>
<path d="M0 0 C1.32 0 2.64 0 4 0 C6.41094743 5.72576199 8.81343802 11.45497134 11.20825195 17.1875 C12.02365905 19.13605574 12.84134533 21.08365937 13.66137695 23.03027344 C14.84149932 25.83279568 16.01331024 28.63866994 17.18359375 31.4453125 C17.55028671 32.31116974 17.91697968 33.17702698 18.29478455 34.06912231 C20.08396755 38.3827857 21.48993542 42.31273988 22 47 C20.68 47 19.36 47 18 47 C16.9955866 44.7101766 15.99632388 42.4183401 15 40.125 C14.71382813 39.47402344 14.42765625 38.82304687 14.1328125 38.15234375 C12 33.2265625 12 33.2265625 12 31 C5.07 31 -1.86 31 -9 31 C-9.99 34.3 -10.98 37.6 -12 41 C-12.94368683 43.02717912 -13.91844497 45.04290043 -15 47 C-15.99 47 -16.98 47 -18 47 C-15.27517913 30.86300531 -6.3957508 14.91545089 0 0 Z " fill="#C0C0C0" transform="translate(295,372)"/>
<path d="M0 0 C13.91891892 0 13.91891892 0 19 4 C21.94376599 7.41856695 22.53900646 10.49211711 22.3515625 15.0078125 C21.75600443 18.38264157 20.20327753 20.43943422 18 23 C13 26 13 26 0 26 C0 17.42 0 8.84 0 0 Z " fill="#292929" transform="translate(389,247)"/>
<path d="M0 0 C13.77777778 0 13.77777778 0 19 4 C20.97289835 6.16101191 21.92708402 7.40368713 22.28515625 10.33203125 C21.70171049 16.83182174 19.96965437 20.68945099 15 25 C10.51793698 27.24103151 5.01109879 26 0 26 C0 17.42 0 8.84 0 0 Z " fill="#292929" transform="translate(332,164)"/>
<path d="M0 0 C4.30159395 1.4987454 6.09435755 4.67019013 8.375 8.375 C8.7678418 9.00349854 9.16068359 9.63199707 9.56542969 10.27954102 C21.70193219 29.97775054 26.45323447 49.37119558 26.5 72.375 C26.5023465 73.11545563 26.50469299 73.85591125 26.5071106 74.61880493 C26.48199158 93.89026536 22.08713098 110.98179316 13 128 C12.15881858 125.15145382 11.90898572 122.88727351 12.25 119.9375 C12.31703125 119.26589844 12.3840625 118.59429687 12.453125 117.90234375 C13.12949455 115.54954394 14.27937321 114.70765724 16 113 C18.58572454 106.87824191 19.37540212 100.55827778 20 94 C20.33 93.67 20.66 93.34 21 93 C24.49925211 72.35693002 23.95801124 47.99676362 14.79589844 28.85644531 C14 27 14 27 14 25 C13.34 25 12.68 25 12 25 C11.70609375 24.00033203 11.70609375 24.00033203 11.40625 22.98046875 C9.17330138 16.09875211 6.11315165 10.96687652 1.609375 5.3125 C0 3 0 3 0 0 Z " fill="#ACACAC" transform="translate(462,140)"/>
<path d="M0 0 C18.25 0 18.25 0 23.875 4.5 C26.53685706 8.04914275 26.21579212 11.75608823 26 16 C25.47970916 19.25181773 24.87705746 21.18652921 22.4375 23.44921875 C17.22130909 27.11948212 12.28507494 27.85832823 6 28 C6 27.01 6 26.02 6 25 C7.546875 24.87625 7.546875 24.87625 9.125 24.75 C13.34054382 23.93408829 15.64928456 22.63270499 19 20 C19.33 19.34 19.66 18.68 20 18 C20.66 18 21.32 18 22 18 C21.93976735 16.39479996 21.85091401 14.79065673 21.75 13.1875 C21.70359375 12.29417969 21.6571875 11.40085937 21.609375 10.48046875 C21.14175049 7.44615246 21.14175049 7.44615246 17 5 C12.71 4.34 8.42 3.68 4 3 C4 17.52 4 32.04 4 47 C2.68 47 1.36 47 0 47 C0 31.49 0 15.98 0 0 Z " fill="#B0B0B0" transform="translate(241,372)"/>
<path d="M0 0 C18.65714286 0 18.65714286 0 24.4375 5.1875 C26.47173368 8.84912062 26.78075846 11.95280307 26 16 C23.19463631 21.50282877 18.94346078 26.01884641 13 28 C11.60560336 28.06665376 10.20830125 28.08538199 8.8125 28.0625 C6.9253125 28.0315625 6.9253125 28.0315625 5 28 C5.33 27.01 5.66 26.02 6 25 C9.1875 23.9375 9.1875 23.9375 13 23 C16.28861095 22.1552144 16.28861095 22.1552144 19 21 C20.00259507 17.99221479 20.30314642 15.46179353 20.5625 12.3125 C20.64628906 11.31863281 20.73007812 10.32476562 20.81640625 9.30078125 C20.87699219 8.54152344 20.93757813 7.78226562 21 7 C20.21625 6.690625 19.4325 6.38125 18.625 6.0625 C16 5 16 5 14 4 C10.37 3.67 6.74 3.34 3 3 C3 17.19 3 31.38 3 46 C2.01 46 1.02 46 0 46 C0 30.82 0 15.64 0 0 Z " fill="#D0D0D0" transform="translate(378,372)"/>
<path d="M0 0 C2.30761719 0.21118164 2.30761719 0.21118164 5 1 C6.65332031 3.00952148 6.65332031 3.00952148 8.078125 5.62109375 C8.59890625 6.55630859 9.1196875 7.49152344 9.65625 8.45507812 C10.1821875 9.43927734 10.708125 10.42347656 11.25 11.4375 C11.79140625 12.41783203 12.3328125 13.39816406 12.890625 14.40820312 C14.63869433 17.58313404 16.37903132 20.75806265 18 24 C18.66 24 19.32 24 20 24 C20.36762451 23.30849854 20.73524902 22.61699707 21.11401367 21.90454102 C22.78754579 18.78070204 24.48703954 15.67175619 26.1875 12.5625 C26.76564453 11.47388672 27.34378906 10.38527344 27.93945312 9.26367188 C28.50986328 8.22919922 29.08027344 7.19472656 29.66796875 6.12890625 C30.44563599 4.69140015 30.44563599 4.69140015 31.23901367 3.22485352 C33 1 33 1 35.70825195 0.17944336 C36.46452881 0.12022705 37.22080566 0.06101074 38 0 C37.09736608 4.21305675 35.05199618 7.49536201 32.8125 11.125 C32.40902344 11.79877686 32.00554687 12.47255371 31.58984375 13.16674805 C29.85180474 16.05782926 28.1064197 18.85540086 26.10546875 21.57421875 C20.55332989 29.31479191 21.02003483 37.80401131 21 47 C19.68 47 18.36 47 17 47 C17.00902344 45.83984375 17.01804687 44.6796875 17.02734375 43.484375 C16.90999657 33.79752109 16.10248094 27.30942912 10.49609375 19.1875 C9 17 9 17 9 15 C8.34 15 7.68 15 7 15 C6.16180842 13.37750059 5.3295884 11.75191503 4.5 10.125 C4.0359375 9.22007812 3.571875 8.31515625 3.09375 7.3828125 C2 5 2 5 2 3 C1.34 3 0.68 3 0 3 C0 2.01 0 1.02 0 0 Z " fill="#C0C0C0" transform="translate(322,372)"/>
<path d="M0 0 C0.99 0 1.98 0 3 0 C1.66887799 2.94893086 0.21309031 5.0416973 -2.06088257 7.33503723 C-2.68891281 7.9730426 -3.31694305 8.61104797 -3.96400452 9.26838684 C-4.65183517 9.95688217 -5.33966583 10.6453775 -6.04833984 11.35473633 C-6.77372452 12.08844452 -7.49910919 12.82215271 -8.24647522 13.57809448 C-10.64584025 16.00155623 -13.05279952 18.41728864 -15.4609375 20.83203125 C-17.13009352 22.51015043 -18.79917002 24.18834872 -20.46817017 25.86662292 C-23.96659094 29.38153299 -27.46938181 32.8920252 -30.97460938 36.40014648 C-35.4748403 40.90577569 -39.95867694 45.42735374 -44.43874168 49.95302296 C-47.87890596 53.4228535 -51.33019353 56.88145185 -54.78471756 60.33698082 C-56.44347076 61.99995335 -58.09808252 63.66706715 -59.74851608 65.33829689 C-62.05171367 67.66820366 -64.37001832 69.98194836 -66.69287109 72.29223633 C-67.37665329 72.99085281 -68.06043549 73.6894693 -68.76493835 74.40925598 C-69.39860825 75.03316223 -70.03227814 75.65706848 -70.68515015 76.29988098 C-71.23194113 76.84868329 -71.77873211 77.3974856 -72.34209251 77.96291828 C-74 79 -74 79 -76.20717812 78.66875744 C-76.79880934 78.44806748 -77.39044056 78.22737753 -78 78 C-71.9123708 71.86610536 -65.81941096 65.73757132 -59.71950722 59.61588287 C-56.8874886 56.77341065 -54.057367 53.92910117 -51.23144531 51.08056641 C-48.50608701 48.33353584 -45.77592416 45.59136742 -43.04230881 42.85255432 C-41.99832609 41.80486572 -40.9561102 40.75541357 -39.91566849 39.70420837 C-38.46220021 38.2362998 -37.00267235 36.77469126 -35.54150391 35.31445312 C-34.71099518 34.47950317 -33.88048645 33.64455322 -33.02481079 32.78430176 C-31 31 -31 31 -29 31 C-28.61714844 30.12794922 -28.61714844 30.12794922 -28.2265625 29.23828125 C-24.81878463 23.01962928 -18.33016569 18.3703795 -13.01953125 13.79296875 C-6.74458489 8.22529038 -6.74458489 8.22529038 -1.45703125 1.76171875 C-0.73580078 0.88966797 -0.73580078 0.88966797 0 0 Z " fill="#A1A1A1" transform="translate(476,105)"/>
<path d="M0 0 C3.70818297 -0.08756305 7.41609763 -0.14058015 11.125 -0.1875 C12.17171875 -0.21263672 13.2184375 -0.23777344 14.296875 -0.26367188 C22.60626435 -0.34255848 27.7653516 1.28490563 34 7 C36.9098425 11.66999199 36.62574208 16.6773297 36 22 C33.82147671 26.43773264 31.06963864 29.21551041 27 32 C26.34 32 25.68 32 25 32 C24.67 30.68 24.34 29.36 24 28 C24.99 27.67 25.98 27.34 27 27 C28.15521502 24.52869082 28.15521502 24.52869082 29 22 C29.33 21.67 29.66 21.34 30 21 C30.535396 14.59326174 30.535396 14.59326174 28 9 C26.29618026 7.86691791 24.5671754 6.87744373 22.75390625 5.9296875 C21 5 21 5 18 3 C16.07255631 2.6373883 16.07255631 2.6373883 13.98828125 2.5859375 C13.23095703 2.54726562 12.47363281 2.50859375 11.69335938 2.46875 C10.90767578 2.4378125 10.12199219 2.406875 9.3125 2.375 C8.11657227 2.31699219 8.11657227 2.31699219 6.89648438 2.2578125 C4.93136525 2.16367506 2.9657146 2.08075368 1 2 C1 2.66 1 3.32 1 4 C1.99 4 2.98 4 4 4 C4 18.85 4 33.7 4 49 C3.01 48.67 2.02 48.34 1 48 C1.66 48 2.32 48 3 48 C3 34.14 3 20.28 3 6 C2.01 5.67 1.02 5.34 0 5 C0 3.35 0 1.7 0 0 Z " fill="#B2B2B2" transform="translate(380,243)"/>
<path d="M0 0 C7.92 0 15.84 0 24 0 C24 0.66 24 1.32 24 2 C24.886875 2.226875 25.77375 2.45375 26.6875 2.6875 C30.95434135 4.37813525 33.92493804 6.84987609 36 11 C36.75224506 16.65612107 36.85804699 21.60342417 33.5625 26.4375 C29.17385059 31.41948663 24.36631085 33.75694507 17.75390625 34.234375 C14.8229144 34.24818415 11.92504992 34.17817563 9 34 C9 33.67 9 33.34 9 33 C9.6290625 33.00902344 10.258125 33.01804688 10.90625 33.02734375 C17.26334948 32.80714301 20.82901428 31.45186771 25.37109375 26.96484375 C28.49964988 23.1910698 29.71996459 19.75022133 30.5 14.875 C29.58703496 9.62545103 25.16287639 6.92943153 21 4 C21.33 3.01 21.66 2.02 22 1 C15.07 1 8.14 1 1 1 C1 1.99 1 2.98 1 4 C1.99 4 2.98 4 4 4 C4 18.85 4 33.7 4 49 C3.01 48.67 2.02 48.34 1 48 C1.66 48 2.32 48 3 48 C3 33.81 3 19.62 3 5 C2.01 5 1.02 5 0 5 C0 3.35 0 1.7 0 0 Z " fill="#B4B4B4" transform="translate(323,160)"/>
<path d="M0 0 C1.32 0 2.64 0 4 0 C4 14.19 4 28.38 4 43 C11.26 43 18.52 43 26 43 C26 43.99 26 44.98 26 46 C17.42 46 8.84 46 0 46 C0 30.82 0 15.64 0 0 Z " fill="#BFBFBF" transform="translate(423,373)"/>
<path d="M0 0 C0.99 0.495 0.99 0.495 2 1 C-8.520478 11.56714547 -19.04663997 22.12860299 -29.57964134 32.68326569 C-34.4698793 37.58382755 -39.35822243 42.48625221 -44.2421875 47.39306641 C-48.95143022 52.12433036 -53.66583667 56.85039034 -58.38350296 61.57325745 C-60.18665805 63.38012103 -61.98804582 65.18875001 -63.78767014 66.99913025 C-66.29965592 69.52553696 -68.81773196 72.04571384 -71.33740234 74.56445312 C-72.08762161 75.32186295 -72.83784088 76.07927277 -73.61079407 76.8596344 C-74.29508987 77.54118088 -74.97938568 78.22272736 -75.68441772 78.92492676 C-76.27989599 79.52224861 -76.87537426 80.11957047 -77.48889732 80.73499298 C-79 82 -79 82 -81 82 C-80.42653605 78.27101709 -78.93226358 76.55755386 -76.29394531 73.92163086 C-75.50932922 73.13078598 -74.72471313 72.3399411 -73.9163208 71.52513123 C-73.06221619 70.68023636 -72.20811157 69.83534149 -71.328125 68.96484375 C-70.45355652 68.08977676 -69.57898804 67.21470978 -68.67791748 66.31312561 C-66.35088266 63.98903205 -64.01695863 61.67213297 -61.68029785 59.35772705 C-60.25366796 57.94114213 -58.83197864 56.51979479 -57.41210938 55.09643555 C-54.68143403 52.35933789 -51.94368833 49.62953763 -49.203125 46.90234375 C-47.93411346 45.6319651 -47.93411346 45.6319651 -46.63946533 44.33592224 C-45.8422406 43.54822952 -45.04501587 42.7605368 -44.22363281 41.94897461 C-43.52715637 41.25710556 -42.83067993 40.56523651 -42.11309814 39.85240173 C-39.87699073 37.89216659 -37.54885745 36.52096117 -35 35 C-33.69869297 33.86085609 -32.43795992 32.67387236 -31.21948242 31.4465332 C-30.51913376 30.74603348 -29.8187851 30.04553375 -29.09721375 29.32380676 C-28.3574379 28.57370834 -27.61766205 27.82360992 -26.85546875 27.05078125 C-25.7007885 25.89185616 -25.7007885 25.89185616 -24.52278137 24.70951843 C-22.07294128 22.24851195 -19.63015963 19.78063153 -17.1875 17.3125 C-15.52454974 15.6395154 -13.86114341 13.966984 -12.19726562 12.29492188 C-8.12620977 8.20185262 -4.06092214 4.10312224 0 0 Z " fill="#B3B3B3" transform="translate(346,237)"/>
<path d="M0 0 C11.55 0 23.1 0 35 0 C35 0.99 35 1.98 35 3 C29.72 3 24.44 3 19 3 C19 16.86 19 30.72 19 45 C18.01 45 17.02 45 16 45 C16 31.14 16 17.28 16 3 C10.72 3 5.44 3 0 3 C0 2.01 0 1.02 0 0 Z " fill="#CCCCCC" transform="translate(487,373)"/>
<path d="M0 0 C0.33 0 0.66 0 1 0 C1.01458252 0.73412109 1.02916504 1.46824219 1.04418945 2.22460938 C1.651909 29.66003332 5.39349436 55.13544996 21.2421875 78.2734375 C23 81 23 81 23 84 C22.34 84 21.68 84 21 84 C19.65351785 82.05012739 18.39812966 80.03700593 17.1875 78 C16.52105469 76.88625 15.85460937 75.7725 15.16796875 74.625 C14.8215332 74.03783203 14.47509766 73.45066406 14.11816406 72.84570312 C13.34775149 71.57401775 12.55101181 70.31803644 11.73339844 69.07617188 C8.66044839 64.38940359 6.57131266 59.83496807 4.875 54.5 C4.62347168 53.71302734 4.37194336 52.92605469 4.11279297 52.11523438 C-0.61026112 36.89616443 -5.2037963 15.6113889 0 0 Z " fill="#A0A0A0" transform="translate(257,197)"/>
<path d="M0 0 C3.62278401 1.32321544 6.57341088 2.94994694 9.75 5.125 C28.89073678 17.46472129 48.00195031 22.05334896 70.59570312 22.4296875 C71.63275391 22.460625 72.66980469 22.4915625 73.73828125 22.5234375 C74.67712158 22.54325684 75.61596191 22.56307617 76.58325195 22.58349609 C79.36937773 23.0636588 80.26602161 23.82321913 82 26 C52.29693507 26.99984424 23.29403202 21.89698568 0 2 C0 1.34 0 0.68 0 0 Z " fill="#ACACAC" transform="translate(301,302)"/>
<path d="M0 0 C0.66 0 1.32 0 2 0 C2.98397585 2.5607445 3.96229967 5.12341492 4.9375 7.6875 C5.21529297 8.40873047 5.49308594 9.12996094 5.77929688 9.87304688 C6.04677734 10.57880859 6.31425781 11.28457031 6.58984375 12.01171875 C6.83597412 12.65584717 7.08210449 13.29997559 7.33569336 13.96362305 C8.08317273 16.25495911 8.52732568 18.63662839 9 21 C3.39 21 -2.22 21 -8 21 C-6.32126593 15.72397865 -4.52256 10.93544348 -2 6 C-1.30028027 4.01132287 -0.62335603 2.01391949 0 0 Z " fill="#303030" transform="translate(296,379)"/>
<path d="M0 0 C1.32 0 2.64 0 4 0 C4 15.51 4 31.02 4 47 C2.68 47 1.36 47 0 47 C0 31.49 0 15.98 0 0 Z " fill="#BCBCBC" transform="translate(466,372)"/>
<path d="M0 0 C3.3 0 6.6 0 10 0 C10.99 0.99 11.98 1.98 13 3 C12.875 6.5625 12.875 6.5625 12 10 C9.08235 11.9451 7.37462715 12.45276317 4 13 C3.67 15.64 3.34 18.28 3 21 C2.01 21 1.02 21 0 21 C0 14.07 0 7.14 0 0 Z " fill="#9C9C9C" transform="translate(273,457)"/>
<path d="M0 0 C0.33 0 0.66 0 1 0 C1.33 9.24 1.66 18.48 2 28 C2.33 28 2.66 28 3 28 C2.23130158 43.63020125 -2.85083792 58.21674516 -10 72 C-10.84118142 69.15145382 -11.09101428 66.88727351 -10.75 63.9375 C-10.68296875 63.26589844 -10.6159375 62.59429687 -10.546875 61.90234375 C-9.87050545 59.54954394 -8.72062679 58.70765724 -7 57 C-4.41427546 50.87824191 -3.62459788 44.55827778 -3 38 C-2.505 37.505 -2.505 37.505 -2 37 C-0.71627742 29.39275506 -0.66743276 21.69709348 -0.4375 14 C-0.39421865 12.63931211 -0.35060161 11.27863485 -0.30664062 9.91796875 C-0.20113317 6.61206843 -0.09901744 3.30610001 0 0 Z " fill="#909090" transform="translate(485,196)"/>
<path d="M0 0 C1.87109375 0.21875 1.87109375 0.21875 4 1 C5.16015625 2.96875 5.16015625 2.96875 6.0625 5.5 C6.38863281 6.39460938 6.71476562 7.28921875 7.05078125 8.2109375 C7.36402344 9.13132812 7.67726563 10.05171875 8 11 C8.30292969 11.87914062 8.60585938 12.75828125 8.91796875 13.6640625 C9.63021722 15.7707129 10.32448361 17.88133496 11 20 C9.68 19.67 8.36 19.34 7 19 C6.67 17.35 6.34 15.7 6 14 C1.545 14.495 1.545 14.495 -3 15 C-3.99 17.475 -3.99 17.475 -5 20 C-5.66 20 -6.32 20 -7 20 C-6.41161801 15.15888235 -4.92346884 11.03928805 -2.9375 6.625 C-2.65583984 5.98433594 -2.37417969 5.34367187 -2.08398438 4.68359375 C-1.39540579 3.11970341 -0.69855289 1.55946059 0 0 Z " fill="#A9A9A9" transform="translate(415,458)"/>
<path d="M0 0 C15.99708638 0.98705427 15.99708638 0.98705427 21.81640625 5.3671875 C24.83529383 7.62460254 28.17832601 9.1266938 31.5625 10.75 C46.07536564 17.87874879 46.07536564 17.87874879 51 22 C51 22.99 51 23.98 51 25 C47.65954958 23.76472927 44.89578808 22.37688017 42 20.3125 C28.50137917 11.16467431 14.24216007 4.99308558 -2 3 C-1.34 2.01 -0.68 1.02 0 0 Z " fill="#ABABAB" transform="translate(392,97)"/>
<path d="M0 0 C3.3 0 6.6 0 10 0 C10 0.66 10 1.32 10 2 C7.69 2 5.38 2 3 2 C3 4.31 3 6.62 3 9 C5.31 9 7.62 9 10 9 C10 9.66 10 10.32 10 11 C7.69 11 5.38 11 3 11 C3 13.97 3 16.94 3 20 C5.64 20 8.28 20 11 20 C11 20.66 11 21.32 11 22 C7.37 22 3.74 22 0 22 C0 14.74 0 7.48 0 0 Z " fill="#9A9A9A" transform="translate(386,457)"/>
<path d="M0 0 C0.66 0 1.32 0 2 0 C3.17578304 2.57952403 4.340791 5.16303938 5.5 7.75 C5.83386719 8.47960937 6.16773438 9.20921875 6.51171875 9.9609375 C6.82753906 10.66992188 7.14335937 11.37890625 7.46875 12.109375 C7.76201172 12.75874023 8.05527344 13.40810547 8.35742188 14.07714844 C9 16 9 16 9 20 C7.68 20 6.36 20 5 20 C3.9955866 17.7101766 2.99632388 15.4183401 2 13.125 C1.71382813 12.47402344 1.42765625 11.82304687 1.1328125 11.15234375 C-1 6.2265625 -1 6.2265625 -1 4 C-7.6 4 -14.2 4 -21 4 C-21 3.67 -21 3.34 -21 3 C-20.15236084 2.970271 -20.15236084 2.970271 -19.28759766 2.93994141 C-16.73292003 2.84481764 -14.17907459 2.73508942 -11.625 2.625 C-10.29082031 2.57859375 -10.29082031 2.57859375 -8.9296875 2.53125 C-8.07890625 2.49257813 -7.228125 2.45390625 -6.3515625 2.4140625 C-5.17327881 2.36693115 -5.17327881 2.36693115 -3.97119141 2.31884766 C-1.76997061 2.1600535 -1.76997061 2.1600535 0 0 Z " fill="#B4B4B4" transform="translate(308,399)"/>
<path d="M0 0 C0.66 0 1.32 0 2 0 C0.75385907 5.29274912 -1.12455598 9.23569576 -4.375 13.625 C-5.01961182 14.51372803 -5.01961182 14.51372803 -5.67724609 15.42041016 C-10.61170606 22.06829758 -16.25300279 28.05551148 -22 34 C-22.66 33.01 -23.32 32.02 -24 31 C-23.45472656 30.50113281 -22.90945313 30.00226563 -22.34765625 29.48828125 C-15.0683823 22.55741699 -9.31399011 14.86687244 -4.3671875 6.109375 C-3.91601562 5.41328125 -3.46484375 4.7171875 -3 4 C-2.34 4 -1.68 4 -1 4 C-0.67 2.68 -0.34 1.36 0 0 Z " fill="#B5B5B5" transform="translate(473,264)"/>
<path d="M0 0 C1.32 0 2.64 0 4 0 C3.08939296 4.2836595 0.9695228 7.6284024 -1.3125 11.3125 C-2.10099433 12.59981117 -2.88875849 13.88756987 -3.67578125 15.17578125 C-4.06072754 15.80436035 -4.44567383 16.43293945 -4.84228516 17.08056641 C-6.61696412 20.02289581 -8.30903534 23.00888859 -10 26 C-10.33 25.34 -10.66 24.68 -11 24 C-11.66 24 -12.32 24 -13 24 C-11.20469881 18.95263894 -8.55008635 14.40609448 -5.9375 9.75 C-5.47794922 8.92242187 -5.01839844 8.09484375 -4.54492188 7.2421875 C-1.13705937 1.13705937 -1.13705937 1.13705937 0 0 Z " fill="#BCBCBC" transform="translate(356,372)"/>
<path d="M0 0 C3 3 3 3 3.4375 6.8125 C3.22525013 11.85112739 1.11205697 14.95963165 -2.49609375 18.4453125 C-6.33097304 21.792464 -9.14815613 23.14511219 -14.1875 23.0625 C-16.0746875 23.0315625 -16.0746875 23.0315625 -18 23 C-17.505 21.515 -17.505 21.515 -17 20 C-13.8125 18.9375 -13.8125 18.9375 -10 18 C-7.99638693 17.34427209 -5.99508067 16.68124706 -4 16 C-3.34 12.04 -2.68 8.08 -2 4 C-1.67 4 -1.34 4 -1 4 C-1 5.98 -1 7.96 -1 10 C-0.34 10 0.32 10 1 10 C0.505 5.05 0.505 5.05 0 0 Z " fill="#B3B3B3" transform="translate(401,377)"/>
<path d="M0 0 C4.62 0 9.24 0 14 0 C14 0.33 14 0.66 14 1 C10.37 1.33 6.74 1.66 3 2 C2.67 16.19 2.34 30.38 2 45 C1.34 45 0.68 45 0 45 C0 30.15 0 15.3 0 0 Z " fill="#DBDBDB" transform="translate(242,373)"/>
<path d="M0 0 C0.99 0 1.98 0 3 0 C1.8694871 3.28876481 0.40062095 5.91312002 -1.5625 8.75 C-4.34652763 13.04067788 -4.87154669 16.95528821 -5 22 C-5.99 22 -6.98 22 -8 22 C-8.01417969 21.3709375 -8.02835937 20.741875 -8.04296875 20.09375 C-8.37119706 14.20338247 -9.43020236 10.45590105 -12.94140625 5.69140625 C-14 4 -14 4 -14 1 C-10.74023094 2.1240583 -10.03813522 2.92812978 -8.375 6.0625 C-7.92125 7.031875 -7.4675 8.00125 -7 9 C-6.34 9.33 -5.68 9.66 -5 10 C-4.731875 9.0925 -4.46375 8.185 -4.1875 7.25 C-3.09365038 4.25630631 -2.19576514 2.28359575 0 0 Z " fill="#A1A1A1" transform="translate(513,457)"/>
<path d="M0 0 C2.01822917 0.06510417 4.03645833 0.13020833 6.0546875 0.1953125 C6.3846875 0.8553125 6.7146875 1.5153125 7.0546875 2.1953125 C4.7446875 2.5253125 2.4346875 2.8553125 0.0546875 3.1953125 C0.02215814 5.48723099 0.02215814 5.48723099 1.0546875 8.1953125 C2.6908955 9.73842972 2.6908955 9.73842972 4.6171875 11.1953125 C7.98207446 13.88307641 7.98207446 13.88307641 8.6796875 16.8828125 C7.94566984 19.59867785 7.25797396 20.47782862 5.0546875 22.1953125 C2.79296875 22.48828125 2.79296875 22.48828125 0.3671875 22.3828125 C-0.44105469 22.35574219 -1.24929688 22.32867187 -2.08203125 22.30078125 C-2.69691406 22.26597656 -3.31179688 22.23117187 -3.9453125 22.1953125 C-3.9453125 21.2053125 -3.9453125 20.2153125 -3.9453125 19.1953125 C-0.9753125 19.1953125 1.9946875 19.1953125 5.0546875 19.1953125 C4.12792393 14.87041583 2.84272645 12.78739835 -0.5703125 10.1328125 C-3.88083195 7.51055073 -3.88083195 7.51055073 -4.5078125 4.4453125 C-3.79731539 1.60332406 -3.02723959 0.30393972 0 0 Z " fill="#B9B9B9" transform="translate(440.9453125,456.8046875)"/>
<path d="M0 0 C2.01822917 0.06510417 4.03645833 0.13020833 6.0546875 0.1953125 C6.0546875 0.8553125 6.0546875 1.5153125 6.0546875 2.1953125 C3.7446875 2.5253125 1.4346875 2.8553125 -0.9453125 3.1953125 C-0.98403937 5.53070157 -0.98403937 5.53070157 0.0546875 8.1953125 C1.69343739 9.48019236 1.69343739 9.48019236 3.6171875 10.6328125 C5.51953125 11.87109375 5.51953125 11.87109375 7.0546875 13.1953125 C7.71335064 16.48862822 7.62935935 18.11780277 6.0546875 21.0703125 C2.80155066 22.90020197 -0.25921359 22.37659605 -3.9453125 22.1953125 C-4.2753125 21.2053125 -4.6053125 20.2153125 -4.9453125 19.1953125 C-1.9753125 19.1953125 0.9946875 19.1953125 4.0546875 19.1953125 C3.12979587 15.21827849 2.19686356 13.0609329 -1.0703125 10.6953125 C-3.9453125 8.1953125 -3.9453125 8.1953125 -4.4453125 5.0078125 C-3.88428366 1.85202529 -3.37928327 0.33928547 0 0 Z " fill="#ABABAB" transform="translate(252.9453125,456.8046875)"/>
<path d="M0 0 C0.66 0 1.32 0 2 0 C1.78065796 0.91604004 1.78065796 0.91604004 1.55688477 1.85058594 C-2.44065446 18.95707273 -3.89946461 35.44967424 -4 53 C-4.33 53 -4.66 53 -5 53 C-5.22076935 48.69983069 -5.41677996 44.39937569 -5.59204102 40.09716797 C-5.65461609 38.64049707 -5.72340537 37.18407689 -5.79907227 35.72802734 C-6.44151782 23.23267687 -5.71672261 11.43344521 0 0 Z " fill="#969696" transform="translate(263,171)"/>
<path d="M0 0 C0.66 0 1.32 0 2 0 C1.84660156 0.63292969 1.69320313 1.26585937 1.53515625 1.91796875 C0.81937036 6.04026849 0.63849837 10.13766507 0.4375 14.3125 C0.39431641 15.14845703 0.35113281 15.98441406 0.30664062 16.84570312 C0.20114693 18.89696935 0.10012685 20.9484648 0 23 C-1.32 23 -2.64 23 -4 23 C-4.33 16.07 -4.66 9.14 -5 2 C-3.68 2 -2.36 2 -1 2 C-0.67 1.34 -0.34 0.68 0 0 Z " fill="#C8C8C8" transform="translate(343,396)"/>
<path d="M0 0 C0.33 0 0.66 0 1 0 C1.01981934 0.75506836 1.03963867 1.51013672 1.06005859 2.28808594 C1.15649239 5.77568593 1.26568279 9.26278097 1.375 12.75 C1.4059375 13.93722656 1.436875 15.12445313 1.46875 16.34765625 C1.6929041 23.18435629 2.2898452 29.73864702 3.57226562 36.4609375 C4.11918889 39.70751397 4.14917601 42.71812784 4 46 C3.34 45.67 2.68 45.34 2 45 C-2.03290156 32.29081023 -4.23076465 12.69229394 0 0 Z " fill="#B4B4B4" transform="translate(257,197)"/>
<path d="M0 0 C4.34776809 1.49855045 6.1419231 4.76365562 8.4375 8.5 C8.82856934 9.12422852 9.21963867 9.74845703 9.62255859 10.39160156 C16.22980485 21.0760089 16.22980485 21.0760089 18 26 C17.67 26.66 17.34 27.32 17 28 C16.01 27.67 15.02 27.34 14 27 C14 26.34 14 25.68 14 25 C13.34 25 12.68 25 12 25 C11.70609375 24.00033203 11.70609375 24.00033203 11.40625 22.98046875 C9.17330138 16.09875211 6.11315165 10.96687652 1.609375 5.3125 C0 3 0 3 0 0 Z " fill="#919191" transform="translate(462,140)"/>
<path d="M0 0 C5.61 0 11.22 0 17 0 C17 0.66 17 1.32 17 2 C14.69 2 12.38 2 10 2 C10 8.27 10 14.54 10 21 C9.01 21 8.02 21 7 21 C7 14.73 7 8.46 7 2 C4.69 2 2.38 2 0 2 C0 1.34 0 0.68 0 0 Z " fill="#9D9D9D" transform="translate(338,457)"/>
<path d="M0 0 C1.28003906 -0.01224609 2.56007813 -0.02449219 3.87890625 -0.03710938 C10.44156528 -0.0472893 16.23271348 0.18545014 22.5 2.1875 C22.5 2.5175 22.5 2.8475 22.5 3.1875 C7.32 3.1875 -7.86 3.1875 -23.5 3.1875 C-23.17 2.5275 -22.84 1.8675 -22.5 1.1875 C-15.09166241 -0.25199134 -7.51960667 0.00378631 0 0 Z " fill="#B6B6B6" transform="translate(372.5,95.8125)"/>
<path d="M0 0 C-13.27685869 5.9558145 -25.61036525 7.64112234 -40 7 C-40 6.67 -40 6.34 -40 6 C-39.19369141 5.85900879 -38.38738281 5.71801758 -37.55664062 5.57275391 C-33.8705658 4.92647341 -30.18528398 4.27577435 -26.5 3.625 C-25.2315625 3.40328125 -23.963125 3.1815625 -22.65625 2.953125 C-14.94728153 1.60351243 -14.94728153 1.60351243 -7.34375 -0.2265625 C-4.10784234 -0.97505516 -3.02400803 -0.92583452 0 0 Z " fill="#C0C0C0" transform="translate(414,320)"/>
<path d="M0 0 C1.32 0 2.64 0 4 0 C4 6.93 4 13.86 4 21 C2.68 21 1.36 21 0 21 C0 14.07 0 7.14 0 0 Z " fill="#7C7C7C" transform="translate(461,457)"/>
<path d="M0 0 C1.53515625 1.796875 1.53515625 1.796875 3 4 C2.05317015 9.47057247 -0.39609797 14.13348407 -3 19 C-3.66 18.67 -4.32 18.34 -5 18 C-5.33 18.99 -5.66 19.98 -6 21 C-6.66 21 -7.32 21 -8 21 C-5.72564796 13.81783567 -2.96415819 6.9241798 0 0 Z " fill="#CECECE" transform="translate(292,379)"/>
<path d="M0 0 C-1.5847358 3.86328627 -4.05956887 6.28876923 -7.0078125 9.203125 C-7.49329559 9.6857782 -7.97877869 10.1684314 -8.47897339 10.66571045 C-10.02299866 12.19858562 -11.57384824 13.72434004 -13.125 15.25 C-14.17624009 16.29120361 -15.22702657 17.33286541 -16.27734375 18.375 C-18.84633004 20.92199464 -21.42148161 23.46265177 -24 26 C-24 21.69292349 -21.4016706 19.87382367 -18.5625 16.9375 C-17.46010371 15.77683303 -16.35854999 14.61536524 -15.2578125 13.453125 C-14.70770508 12.87498047 -14.15759766 12.29683594 -13.59082031 11.70117188 C-12.1265349 10.13531234 -10.70680292 8.54336902 -9.3046875 6.921875 C-8.52351563 6.01953125 -7.74234375 5.1171875 -6.9375 4.1875 C-6.24527344 3.37667969 -5.55304688 2.56585938 -4.83984375 1.73046875 C-3 0 -3 0 0 0 Z " fill="#ABABAB" transform="translate(479,105)"/>
<path d="M0 0 C4.43601966 3.51822249 5.52033129 7.75390186 7 13 C5.68 12.67 4.36 12.34 3 12 C2.67 10.35 2.34 8.7 2 7 C-2.455 7.495 -2.455 7.495 -7 8 C-7.66 9.65 -8.32 11.3 -9 13 C-9.66 13 -10.32 13 -11 13 C-10.25 7.25 -10.25 7.25 -8 5 C-5.8359375 4.8046875 -5.8359375 4.8046875 -3.375 4.875 C-2.14910156 4.90207031 -2.14910156 4.90207031 -0.8984375 4.9296875 C0.04128906 4.96449219 0.04128906 4.96449219 1 5 C0.67 3.35 0.34 1.7 0 0 Z " fill="#B8B8B8" transform="translate(419,465)"/>
<path d="M0 0 C1.10150391 -0.01611328 2.20300781 -0.03222656 3.33789062 -0.04882812 C4.92053711 -0.04979492 4.92053711 -0.04979492 6.53515625 -0.05078125 C7.49945557 -0.05376221 8.46375488 -0.05674316 9.45727539 -0.05981445 C12.3110074 0.36856839 13.18244419 1.08190922 14.9375 3.3125 C11.08334948 3.34173559 7.22922785 3.35937777 3.375 3.375 C2.28896484 3.38337891 1.20292969 3.39175781 0.08398438 3.40039062 C-5.41082611 3.41709218 -10.65211935 3.29832259 -16.0625 2.3125 C-11.02092852 -0.67821229 -5.69852555 -0.01673084 0 0 Z " fill="#A5A5A5" transform="translate(368.0625,324.6875)"/>
<path d="M0 0 C6.72069704 0.41468131 13.89103648 0.95726625 20 4 C21.28125 6.10546875 21.28125 6.10546875 22 8 C21.01 8.495 21.01 8.495 20 9 C18.0390625 8.29296875 18.0390625 8.29296875 15.625 7.1875 C9.87700854 4.75888957 4.16010066 3.80441177 -2 3 C-1.34 2.01 -0.68 1.02 0 0 Z " fill="#929292" transform="translate(392,97)"/>
<path d="M0 0 C0.99 0 1.98 0 3 0 C3 6.27 3 12.54 3 19 C5.97 19 8.94 19 12 19 C12 19.33 12 19.66 12 20 C8.04 20 4.08 20 0 20 C0 13.4 0 6.8 0 0 Z " fill="#A1A1A1" transform="translate(299,458)"/>
<path d="M0 0 C0.99 0 1.98 0 3 0 C3 7.26 3 14.52 3 22 C2.01 22 1.02 22 0 22 C0 14.74 0 7.48 0 0 Z " fill="#9B9B9B" transform="translate(323,457)"/>
<path d="M0 0 C1.32 0.66 2.64 1.32 4 2 C4 2.66 4 3.32 4 4 C-1.36436247 8.80994512 -6.99034226 9.84199542 -14 10 C-14 9.01 -14 8.02 -14 7 C-12.453125 6.87625 -12.453125 6.87625 -10.875 6.75 C-6.65945618 5.93408829 -4.35071544 4.63270499 -1 2 C-0.67 1.34 -0.34 0.68 0 0 Z " fill="#B0B0B0" transform="translate(261,390)"/>
<path d="M0 0 C1.99954746 -0.04254356 4.00041636 -0.04080783 6 0 C7 1 7 1 7.0625 4.0625 C7.041875 5.031875 7.02125 6.00125 7 7 C4.35261084 8.4606285 3.10551666 9 0 9 C0 6.03 0 3.06 0 0 Z " fill="#313131" transform="translate(276,459)"/>
<path d="M0 0 C0.144375 0.598125 0.28875 1.19625 0.4375 1.8125 C0.8872439 3.56150404 1.42892341 5.28677023 2 7 C1.00390625 9.69921875 1.00390625 9.69921875 -0.4375 12.6875 C-0.91058594 13.68136719 -1.38367188 14.67523438 -1.87109375 15.69921875 C-2.42990234 16.83810547 -2.42990234 16.83810547 -3 18 C-3.99 18 -4.98 18 -6 18 C-5.31583566 13.82423832 -3.98634991 10.11919593 -2.4375 6.1875 C-1.75494141 4.44533203 -1.75494141 4.44533203 -1.05859375 2.66796875 C-0.70925781 1.78753906 -0.35992187 0.90710938 0 0 Z " fill="#C2C2C2" transform="translate(283,401)"/>
<path d="M0 0 C0.66 0 1.32 0 2 0 C0.70788526 7.26814542 -3.54189782 12.26667324 -8 18 C-8.66 17.67 -9.32 17.34 -10 17 C-8.39516194 12.33138019 -6.02509806 7.90741833 -3 4 C-2.34 4 -1.68 4 -1 4 C-0.67 2.68 -0.34 1.36 0 0 Z " fill="#A5A5A5" transform="translate(473,264)"/>
<path d="M0 0 C0.55816406 0.22945313 1.11632812 0.45890625 1.69140625 0.6953125 C-9.83023384 9.14178175 -9.83023384 9.14178175 -15.30859375 12.6953125 C-15.96859375 12.3653125 -16.62859375 12.0353125 -17.30859375 11.6953125 C-5.96125135 -0.78676414 -5.96125135 -0.78676414 0 0 Z " fill="#ABABAB" transform="translate(316.30859375,110.3046875)"/>
<path d="M0 0 C0.33 0 0.66 0 1 0 C1 1.65 1 3.3 1 5 C6.94 5 12.88 5 19 5 C19 5.33 19 5.66 19 6 C18.43490723 6.01458252 17.86981445 6.02916504 17.28759766 6.04418945 C14.73269981 6.11856058 12.17912502 6.21525242 9.625 6.3125 C8.73554688 6.33505859 7.84609375 6.35761719 6.9296875 6.38085938 C6.07890625 6.41630859 5.228125 6.45175781 4.3515625 6.48828125 C3.17327881 6.52755737 3.17327881 6.52755737 1.97119141 6.56762695 C-0.40040156 6.84889597 -0.40040156 6.84889597 -2 10 C-2.66 9.67 -3.32 9.34 -4 9 C-3.67 7.35 -3.34 5.7 -3 4 C-2.34 4 -1.68 4 -1 4 C-0.67 2.68 -0.34 1.36 0 0 Z M19 1 C19.99 1.33 20.98 1.66 22 2 C21.01 2.99 20.02 3.98 19 5 C19 3.68 19 2.36 19 1 Z " fill="#DDDDDD" transform="translate(287,396)"/>
<path d="M0 0 C3.85331189 1.40565461 7.12136565 3.21200977 10.5625 5.4375 C11.95662109 6.33275391 11.95662109 6.33275391 13.37890625 7.24609375 C15.64745823 8.76409649 17.83731942 10.33600812 20 12 C19.01 12.33 18.02 12.66 17 13 C14.73567966 11.83093761 12.6863385 10.63583428 10.5625 9.25 C9.70301758 8.70859375 9.70301758 8.70859375 8.82617188 8.15625 C2.50087321 4.13833877 2.50087321 4.13833877 0 2 C0 1.34 0 0.68 0 0 Z " fill="#B8B8B8" transform="translate(301,302)"/>
<path d="M0 0 C1.32 0 2.64 0 4 0 C3.3826474 4.01279188 1.50178124 6.85490358 -1 10 C-2.32 10 -3.64 10 -5 10 C-3.66759388 6.41275276 -2.29060528 3.08350711 0 0 Z " fill="#B6B6B6" transform="translate(356,372)"/>
<path d="M0 0 C3 3 3 3 3.375 6.9375 C3.25787287 10.47083523 2.56417383 12.43582617 0 15 C-1.32 14.67 -2.64 14.34 -4 14 C-3.67 13.67 -3.34 13.34 -3 13 C-2.76807135 11.48530552 -2.58784762 9.96245438 -2.4375 8.4375 C-2.35371094 7.61121094 -2.26992188 6.78492188 -2.18359375 5.93359375 C-2.12300781 5.29550781 -2.06242187 4.65742188 -2 4 C-1.67 4 -1.34 4 -1 4 C-1 5.98 -1 7.96 -1 10 C-0.34 10 0.32 10 1 10 C0.67 6.7 0.34 3.4 0 0 Z " fill="#A7A7A7" transform="translate(401,377)"/>
<path d="M0 0 C3.54127405 1.43960488 5.14498912 3.14966799 7.25 6.3125 C7.77078125 7.07175781 8.2915625 7.83101562 8.828125 8.61328125 C10.14446007 11.294217 10.22956074 13.05223147 10 16 C8.65407903 14.34348188 7.32481269 12.67344761 6 11 C5.47148437 10.33742187 4.94296875 9.67484375 4.3984375 8.9921875 C3.85445313 8.29351562 3.31046875 7.59484375 2.75 6.875 C2.22921875 6.21242187 1.7084375 5.54984375 1.171875 4.8671875 C0 3 0 3 0 0 Z " fill="#A4A4A4" transform="translate(462,140)"/>
<path d="M0 0 C7.05889737 0.70588974 14.01204964 1.78213386 21 3 C21 3.66 21 4.32 21 5 C14.15441792 5.47759875 7.52260402 4.06076475 1 2 C0.67 1.34 0.34 0.68 0 0 Z " fill="#B9B9B9" transform="translate(335,321)"/>
<path d="M0 0 C0.33 0 0.66 0 1 0 C1.36516854 4.50374532 1.36516854 4.50374532 -0.21875 6.65625 C-2.51985446 8.39217091 -3.83982544 8.31131194 -6.6875 8.1875 C-7.89986328 8.14689453 -7.89986328 8.14689453 -9.13671875 8.10546875 C-9.75160156 8.07066406 -10.36648438 8.03585937 -11 8 C-11 7.01 -11 6.02 -11 5 C-8.03 5 -5.06 5 -2 5 C-1.67 3.68 -1.34 2.36 -1 1 C-0.67 0.67 -0.34 0.34 0 0 Z " fill="#8C8C8C" transform="translate(448,471)"/>
<path d="M0 0 C0.66 0.33 1.32 0.66 2 1 C-2.62 5.62 -7.24 10.24 -12 15 C-12.66 14.67 -13.32 14.34 -14 14 C-10.12814498 9.03918575 -5.79125711 5.06361292 -1 1 C-0.67 0.67 -0.34 0.34 0 0 Z " fill="#3B3B3B" transform="translate(301,122)"/>
<path d="M0 0 C-3 2 -3 2 -5 2 C-5 2.66 -5 3.32 -5 4 C-6.98 4.66 -8.96 5.32 -11 6 C-11.33 5.01 -11.66 4.02 -12 3 C-4.71428571 -1.71428571 -4.71428571 -1.71428571 0 0 Z " fill="#A9A9A9" transform="translate(328,106)"/>
<path d="M0 0 C2.6855594 2.6855594 3.06049974 5.37621328 4 9 C2.68 8.67 1.36 8.34 0 8 C-0.33 6.35 -0.66 4.7 -1 3 C-3.97 3 -6.94 3 -10 3 C-10 2.67 -10 2.34 -10 2 C-6.7 2 -3.4 2 0 2 C0 1.34 0 0.68 0 0 Z " fill="#949494" transform="translate(422,469)"/>
<path d="M0 0 C0.99 0 1.98 0 3 0 C1.43358249 4.30764815 -0.68336156 8.06171464 -3 12 C-4.13671875 10.265625 -4.13671875 10.265625 -5 8 C-4.20703125 5.859375 -4.20703125 5.859375 -2.8125 3.75 C-2.36519531 3.04359375 -1.91789062 2.3371875 -1.45703125 1.609375 C-0.97621094 1.07828125 -0.49539063 0.5471875 0 0 Z " fill="#959595" transform="translate(513,457)"/>
<path d="M0 0 C0.99 0 1.98 0 3 0 C3.2954439 5.02254631 2.98514628 7.89542386 0 12 C-0.66 11.67 -1.32 11.34 -2 11 C-1.34 7.37 -0.68 3.74 0 0 Z " fill="#CBCBCB" transform="translate(264,381)"/>
<path d="M0 0 C-1.58667578 3.90285767 -4.13350481 6.33520982 -7.125 9.25 C-8.03507812 10.14203125 -8.94515625 11.0340625 -9.8828125 11.953125 C-10.58148438 12.62859375 -11.28015625 13.3040625 -12 14 C-12 9.87322664 -9.8002029 8.16826067 -7.125 5.3125 C-6.66480469 4.80138672 -6.20460938 4.29027344 -5.73046875 3.76367188 C-2.26326769 0 -2.26326769 0 0 0 Z " fill="#B2B2B2" transform="translate(467,117)"/>
<path d="M0 0 C3.47000311 1.1566677 3.84701459 1.85726716 5.6875 4.875 C6.12449219 5.57367188 6.56148438 6.27234375 7.01171875 6.9921875 C8 9 8 9 8 12 C7.34 12 6.68 12 6 12 C4.4921875 10.13671875 4.4921875 10.13671875 2.875 7.6875 C2.33617187 6.88699219 1.79734375 6.08648437 1.2421875 5.26171875 C0 3 0 3 0 0 Z " fill="#B2B2B2" transform="translate(272,269)"/>
<path d="M0 0 C0 1.65 0 3.3 0 5 C-0.66 5 -1.32 5 -2 5 C-2.33 6.65 -2.66 8.3 -3 10 C-3.66 9.67 -4.32 9.34 -5 9 C-4.4140625 2.84765625 -4.4140625 2.84765625 -4 1 C-2 0 -2 0 0 0 Z " fill="#C7C7C7" transform="translate(298,373)"/>
<path d="M0 0 C1.9375 0.3125 1.9375 0.3125 4 1 C5.28317892 4.84953676 5.06643637 7.94738135 5 12 C4.34 12 3.68 12 3 12 C2 8 1 4 0 0 Z " fill="#D6D6D6" transform="translate(397,375)"/>
<path d="M0 0 C2.15377564 2.62198774 3.40072174 4.64404172 4 8 C2.02 8 0.04 8 -2 8 C-1.125 2.25 -1.125 2.25 0 0 Z " fill="#414141" transform="translate(416,462)"/>
<path d="M0 0 C2.01822917 0.06510417 4.03645833 0.13020833 6.0546875 0.1953125 C6.3846875 0.8553125 6.7146875 1.5153125 7.0546875 2.1953125 C5.9409375 2.2984375 4.8271875 2.4015625 3.6796875 2.5078125 C2.4834375 2.7346875 1.2871875 2.9615625 0.0546875 3.1953125 C-0.9353125 4.6803125 -0.9353125 4.6803125 -1.9453125 6.1953125 C-2.9353125 6.6903125 -2.9353125 6.6903125 -3.9453125 7.1953125 C-4.0703125 4.8203125 -4.0703125 4.8203125 -3.9453125 2.1953125 C-1.9453125 0.1953125 -1.9453125 0.1953125 0 0 Z " fill="#929292" transform="translate(440.9453125,456.8046875)"/>
<path d="M0 0 C2.475 0.495 2.475 0.495 5 1 C5.33 2.98 5.66 4.96 6 7 C5.01 7 4.02 7 3 7 C2.67 5.68 2.34 4.36 2 3 C1.34 3 0.68 3 0 3 C0 2.01 0 1.02 0 0 Z " fill="#B8B8B8" transform="translate(322,372)"/>
<path d="M0 0 C1.5625 1.6875 1.5625 1.6875 3 4 C2.6875 6.75 2.6875 6.75 2 9 C1.67 8.01 1.34 7.02 1 6 C0.34 6 -0.32 6 -1 6 C-1.12375 6.804375 -1.2475 7.60875 -1.375 8.4375 C-1.58125 9.283125 -1.7875 10.12875 -2 11 C-2.99 11.495 -2.99 11.495 -4 12 C-3.52309796 10.37433394 -3.04340334 8.74948689 -2.5625 7.125 C-2.29566406 6.22007812 -2.02882813 5.31515625 -1.75390625 4.3828125 C-1 2 -1 2 0 0 Z " fill="#A0A0A0" transform="translate(292,379)"/>
<path d="M0 0 C2.97 0 5.94 0 9 0 C9 0.99 9 1.98 9 3 C6.36 3 3.72 3 1 3 C0.67 2.01 0.34 1.02 0 0 Z " fill="#878787" transform="translate(248,476)"/>
<path d="M0 0 C2.60018816 3.90028225 2.15085514 7.47434569 2 12 C1.01 12.33 0.02 12.66 -1 13 C-1.22245393 11.39773045 -1.42746669 9.79303233 -1.625 8.1875 C-1.74101562 7.29417969 -1.85703125 6.40085938 -1.9765625 5.48046875 C-2 3 -2 3 0 0 Z " fill="#828282" transform="translate(485,183)"/>
<path d="M0 0 C0.66 0.33 1.32 0.66 2 1 C0.50902342 4.7952131 -1.75700849 6.61042731 -5 9 C-5.33 8.01 -5.66 7.02 -6 6 C-4.02 4.02 -2.04 2.04 0 0 Z " fill="#9E9E9E" transform="translate(298,121)"/>
<path d="M0 0 C1.32 0 2.64 0 4 0 C4.99 2.97 5.98 5.94 7 9 C6.01 8.67 5.02 8.34 4 8 C3.67 8.66 3.34 9.32 3 10 C3 9.01 3 8.02 3 7 C2.34 6.67 1.68 6.34 1 6 C1.66 6 2.32 6 3 6 C3 4.35 3 2.7 3 1 C2.01 1.33 1.02 1.66 0 2 C0 1.34 0 0.68 0 0 Z " fill="#B0B0B0" transform="translate(295,372)"/>
<path d="M0 0 C0.66 0.99 1.32 1.98 2 3 C-0.31 4.98 -2.62 6.96 -5 9 C-5.33 8.01 -5.66 7.02 -6 6 C-4.02 4.02 -2.04 2.04 0 0 Z " fill="#ADADAD" transform="translate(455,289)"/>
<path d="M0 0 C0.33 0 0.66 0 1 0 C1.75 2.75 1.75 2.75 2 6 C0.0625 8.375 0.0625 8.375 -2 10 C-2.66 9.67 -3.32 9.34 -4 9 C-3.67 7.35 -3.34 5.7 -3 4 C-2.34 4 -1.68 4 -1 4 C-0.67 2.68 -0.34 1.36 0 0 Z " fill="#D7D7D7" transform="translate(287,396)"/>
<path d="M0 0 C0.99 0.33 1.98 0.66 3 1 C2.67 1.99 2.34 2.98 2 4 C-1.28519475 5.09506492 -3.73663415 5.09960608 -7.1875 5.0625 C-8.81751953 5.04896484 -8.81751953 5.04896484 -10.48046875 5.03515625 C-11.31191406 5.02355469 -12.14335937 5.01195312 -13 5 C-13 4.67 -13 4.34 -13 4 C-12.31292969 3.96261719 -11.62585938 3.92523438 -10.91796875 3.88671875 C-10.01691406 3.82097656 -9.11585938 3.75523437 -8.1875 3.6875 C-7.29417969 3.62949219 -6.40085937 3.57148438 -5.48046875 3.51171875 C-2.69396 2.93686419 -1.75864246 2.1793144 0 0 Z " fill="#BDBDBD" transform="translate(345,189)"/>
<path d="M0 0 C0.144375 0.598125 0.28875 1.19625 0.4375 1.8125 C0.8872439 3.56150404 1.42892341 5.28677023 2 7 C1.34 7.66 0.68 8.32 0 9 C-0.33 8.67 -0.66 8.34 -1 8 C-1.33 8.99 -1.66 9.98 -2 11 C-2.66 11 -3.32 11 -4 11 C-3.52269162 9.5410574 -3.04308958 8.08286504 -2.5625 6.625 C-2.29566406 5.81289063 -2.02882813 5.00078125 -1.75390625 4.1640625 C-1 2 -1 2 0 0 Z " fill="#ACACAC" transform="translate(283,401)"/>
<path d="M0 0 C0.66 0 1.32 0 2 0 C0.14285714 7.57142857 0.14285714 7.57142857 -3 10 C-3 8.02 -3 6.04 -3 4 C-2.34 4 -1.68 4 -1 4 C-0.67 2.68 -0.34 1.36 0 0 Z " fill="#AFAFAF" transform="translate(473,264)"/>
<path d="M0 0 C0.33 0.66 0.66 1.32 1 2 C-0.98 2.33 -2.96 2.66 -5 3 C-5 4.65 -5 6.3 -5 8 C-5.99 7.34 -6.98 6.68 -8 6 C-7.67 4.35 -7.34 2.7 -7 1 C-3.535 0.505 -3.535 0.505 0 0 Z " fill="#4D4D4D" transform="translate(259,458)"/>
<path d="M0 0 C0.33 0.99 0.66 1.98 1 3 C1.66 3 2.32 3 3 3 C2.34 4.32 1.68 5.64 1 7 C0.67 6.67 0.34 6.34 0 6 C-0.33 6.99 -0.66 7.98 -1 9 C-1.66 9 -2.32 9 -3 9 C-2.01 6.03 -1.02 3.06 0 0 Z " fill="#A5A5A5" transform="translate(287,391)"/>
<path d="M0 0 C0.33 0 0.66 0 1 0 C1.33 1.98 1.66 3.96 2 6 C-1.18762365 8.12508244 -3.26512223 8.5020163 -7 9 C-7 8.34 -7 7.68 -7 7 C-5.02 6.34 -3.04 5.68 -1 5 C-0.67 3.35 -0.34 1.7 0 0 Z " fill="#959595" transform="translate(283,461)"/>
<path d="M0 0 C3.93846154 3.32307692 3.93846154 3.32307692 4.25 6.75 C4.1675 7.4925 4.085 8.235 4 9 C1.47740939 7.02579865 1.0070192 6.03254358 0.3125 2.8125 C0.209375 1.884375 0.10625 0.95625 0 0 Z " fill="#AFAFAF" transform="translate(263,250)"/>
<path d="M0 0 C0.99 0.33 1.98 0.66 3 1 C3 1.66 3 2.32 3 3 C2.34 3 1.68 3 1 3 C0.34 4.65 -0.32 6.3 -1 8 C-1.66 6.68 -2.32 5.36 -3 4 C-2.01 2.68 -1.02 1.36 0 0 Z " fill="#999999" transform="translate(276,145)"/>
<path d="M0 0 C1.98 0.99 1.98 0.99 4 2 C4 2.99 4 3.98 4 5 C2.68 5.33 1.36 5.66 0 6 C0 4.02 0 2.04 0 0 Z " fill="#C4C4C4" transform="translate(309,404)"/>
<path d="M0 0 C-5.625 3 -5.625 3 -9 3 C-9 2.34 -9 1.68 -9 1 C-5.57367167 -0.61798838 -3.61944899 -1.34053666 0 0 Z " fill="#B5B5B5" transform="translate(336,103)"/>
<path d="M0 0 C2.64 0 5.28 0 8 0 C8 0.66 8 1.32 8 2 C5.36 2.33 2.72 2.66 0 3 C0 2.01 0 1.02 0 0 Z " fill="#969696" transform="translate(251,457)"/>
<path d="M0 0 C0.66 0 1.32 0 2 0 C2.66 2.31 3.32 4.62 4 7 C3.01 7 2.02 7 1 7 C0 6 0 6 -0.0625 2.9375 C-0.041875 1.968125 -0.02125 0.99875 0 0 Z " fill="#B4B4B4" transform="translate(249,459)"/>
<path d="M0 0 C0.33 0.99 0.66 1.98 1 3 C0.01 3.99 -0.98 4.98 -2 6 C-2.33 4.35 -2.66 2.7 -3 1 C-2.01 0.67 -1.02 0.34 0 0 Z " fill="#CBCBCB" transform="translate(353,381)"/>
<path d="M0 0 C0.66 0.33 1.32 0.66 2 1 C0.07423885 3.43929746 -1.80090595 5.80090595 -4 8 C-4.66 7.34 -5.32 6.68 -6 6 C-4.02 4.02 -2.04 2.04 0 0 Z " fill="#A5A5A5" transform="translate(285,296)"/>
<path d="M0 0 C2.125 0.9375 2.125 0.9375 4 2 C2.68 2.99 1.36 3.98 0 5 C-0.66 4.67 -1.32 4.34 -2 4 C-2 3.01 -2 2.02 -2 1 C-1.34 0.67 -0.68 0.34 0 0 Z " fill="#858585" transform="translate(319,107)"/>
</svg>
