<?xml version="1.0" encoding="UTF-8"?>
<svg version="1.1" xmlns="http://www.w3.org/2000/svg" width="458" height="468">
<path d="M0 0 C151.14 0 302.28 0 458 0 C458 154.44 458 308.88 458 468 C306.86 468 155.72 468 0 468 C0 313.56 0 159.12 0 0 Z " fill="#1F1F1F" transform="translate(0,0)"/>
<path d="M0 0 C7.92 0 15.84 0 24 0 C24 0.66 24 1.32 24 2 C24.886875 2.226875 25.77375 2.45375 26.6875 2.6875 C30.95434135 4.37813525 33.92493804 6.84987609 36 11 C36.75224506 16.65612107 36.85804699 21.60342417 33.5625 26.4375 C29.17385059 31.41948663 24.36631085 33.75694507 17.75390625 34.234375 C14.83492423 34.24812757 11.91593406 34.13406593 9 34 C9 38.95 9 43.9 9 49 C10.32 49 11.64 49 13 49 C13 50.32 13 51.64 13 53 C8.71 53 4.42 53 0 53 C0.33 51.35 0.66 49.7 1 48 C1.66 48 2.32 48 3 48 C3 33.81 3 19.62 3 5 C2.01 5 1.02 5 0 5 C0 3.35 0 1.7 0 0 Z " fill="#D5D5D5" transform="translate(173,97)"/>
<path d="M0 0 C3.89577024 -0.05821935 7.79142802 -0.0936703 11.6875 -0.125 C12.79029297 -0.14175781 13.89308594 -0.15851563 15.02929688 -0.17578125 C16.09599609 -0.18222656 17.16269531 -0.18867188 18.26171875 -0.1953125 C19.73064575 -0.21102295 19.73064575 -0.21102295 21.22924805 -0.22705078 C26.5404174 0.20817589 30.12217824 2.43659622 34 6 C36.9119996 10.66731643 36.62553804 15.67906528 36 21 C33.82939739 25.42159791 31.09412717 28.27058188 27 31 C26.01 31 25.02 31 24 31 C24 31.66 24 32.32 24 33 C19.05 33 14.1 33 9 33 C9 37.95 9 42.9 9 48 C10.32 48 11.64 48 13 48 C13 49.32 13 50.64 13 52 C8.71 52 4.42 52 0 52 C0 50.68 0 49.36 0 48 C1.32 48 2.64 48 4 48 C4 33.48 4 18.96 4 4 C2.68 4 1.36 4 0 4 C0 2.68 0 1.36 0 0 Z " fill="#D6D6D6" transform="translate(230,181)"/>
<path d="M0 0 C1.65595649 0.53476391 3.31222388 1.06856574 4.96875 1.6015625 C9.32944702 3.02071929 13.66794598 4.49581458 18 6 C18 6.66 18 7.32 18 8 C18.87140625 8.25910156 19.7428125 8.51820312 20.640625 8.78515625 C24.02615232 10.00945741 26.7266987 11.4957388 29.75 13.4375 C30.69359375 14.03433594 31.6371875 14.63117188 32.609375 15.24609375 C35 17 35 17 37 20 C33.33257944 19.45432843 31.07808617 18.59277958 28.125 16.375 C19.14939609 10.15650981 8.6269386 5.46669086 -2 3 C-3.12019531 2.72285156 -4.24039063 2.44570313 -5.39453125 2.16015625 C-23.14371945 -1.74214754 -40.58316437 -1.02162733 -58 4 C-58.66080566 4.18191895 -59.32161133 4.36383789 -60.00244141 4.55126953 C-75.94139925 9.0068513 -87.95634135 16.99654939 -100 28 C-100.73863281 28.65613281 -101.47726563 29.31226563 -102.23828125 29.98828125 C-110.0734154 37.32096191 -117.20522497 46.82718499 -121.13671875 56.8515625 C-122.14734982 59.3667077 -123.37275856 61.72156254 -124.625 64.125 C-128.25965885 71.40546697 -129.28886715 77.93522333 -129.75390625 86.01171875 C-130 89 -130 89 -130.50048828 90.82836914 C-135.86691045 114.15892885 -128.03087609 139.19025607 -116 159 C-114.67518731 160.67344761 -113.34592097 162.34348188 -112 164 C-112 164.99 -112 165.98 -112 167 C-118.62251073 164.79249642 -123.04382043 153.11589755 -126.25 147.0625 C-132.97004588 133.20240537 -135.39593767 117.97328128 -135.3125 102.6875 C-135.30686035 101.59373047 -135.3012207 100.49996094 -135.29541016 99.37304688 C-134.82661288 68.01468624 -120.4407682 43.59430916 -98.44140625 22.1796875 C-94.29251467 18.25689042 -89.82771978 15.03533874 -85 12 C-83.515 10.9171875 -83.515 10.9171875 -82 9.8125 C-77.84599034 7.30278583 -73.54786519 5.67041086 -69 4 C-68.35498535 3.75958984 -67.7099707 3.51917969 -67.04541016 3.27148438 C-64.86715576 2.46260483 -62.68443602 1.66702336 -60.5 0.875 C-59.46879028 0.49432373 -59.46879028 0.49432373 -58.41674805 0.10595703 C-39.91641271 -6.48714328 -18.52940639 -6.25773812 0 0 Z " fill="#AEAEAE" transform="translate(250,61)"/>
<path d="M0 0 C3.95465645 1.31821882 5.13406328 3.7482837 7.25 7.125 C7.6433252 7.74592529 8.03665039 8.36685059 8.44189453 9.0065918 C19.19378445 26.38758098 24.37826829 43.77659135 24.31567383 64.21484375 C24.31251455 66.36510038 24.33605895 68.51397475 24.36132812 70.6640625 C24.48478731 97.17411652 12.79952811 120.93170387 -5 140 C-5.763125 140.84433594 -6.52625 141.68867188 -7.3125 142.55859375 C-13.10711882 148.70472438 -19.79390537 153.62671732 -27 158 C-27.66 158 -28.32 158 -29 158 C-29 158.66 -29 159.32 -29 160 C-35.00486275 163.23015371 -40.88486714 165.34472159 -47.4375 167.1875 C-49.22865136 167.69907619 -51.01906206 168.21325533 -52.80859375 168.73046875 C-53.98119751 169.06147583 -53.98119751 169.06147583 -55.17749023 169.39916992 C-56.99769584 169.84764189 -56.99769584 169.84764189 -58 171 C-88.19676566 176.51594253 -117.4509782 171.39757812 -143 154.125 C-145.375 152.4453125 -145.375 152.4453125 -147 151 C-147 150.34 -147 149.68 -147 149 C-143.20580426 150.38095052 -140.048996 152.14697515 -136.6875 154.375 C-113.36163231 169.41691468 -87.4217436 171.65141584 -60.34375 167.73046875 C-52.33959844 165.98189826 -44.94471162 163.34826716 -37.5625 159.8125 C-36.7362915 159.41740234 -35.91008301 159.02230469 -35.05883789 158.61523438 C-28.48580129 155.39094486 -22.61873869 151.71864948 -17 147 C-16.14148438 146.27941406 -15.28296875 145.55882812 -14.3984375 144.81640625 C4.97418492 127.93120514 19.31644547 103.82674243 21.15774536 77.76748657 C21.3594473 72.36514557 21.27667745 66.96642942 21.1875 61.5625 C21.17240137 59.94467414 21.15872227 58.3268344 21.14648438 56.70898438 C21.11394478 52.80563635 21.06246048 48.90297913 21 45 C20.34 45 19.68 45 19 45 C18.86013672 44.4423999 18.72027344 43.8847998 18.57617188 43.31030273 C15.15198383 29.91220362 11.55518832 16.43403968 2.25390625 5.77734375 C0 3 0 3 0 0 Z " fill="#AAAAAA" transform="translate(304,98)"/>
<path d="M0 0 C17 0 17 0 21 1 C23.58188698 4.78062022 24.66616942 8.36057449 24.48046875 12.9765625 C23.27165493 18.06733941 19.249896 21.17560051 15.0625 23.9375 C12 25 12 25 5 25 C5 30.28 5 35.56 5 41 C3.35 41 1.7 41 0 41 C0 27.47 0 13.94 0 0 Z " fill="#7B7B7B" transform="translate(99,307)"/>
<path d="M0 0 C-1.3602772 3.03899766 -2.89022441 5.14059492 -5.23904419 7.49072647 C-5.91060484 8.16750262 -6.58216549 8.84427876 -7.27407646 9.54156327 C-8.38388469 10.64467933 -8.38388469 10.64467933 -9.51611328 11.77008057 C-10.30045305 12.55754032 -11.08479282 13.34500007 -11.89290047 14.15632224 C-14.5306192 16.80203842 -17.17545351 19.44052472 -19.8203125 22.07910156 C-21.70938125 23.97087935 -23.59805661 25.86304258 -25.48626709 27.75567627 C-30.08789604 32.36620412 -34.6949226 36.97130179 -39.30389929 41.57448319 C-43.04797312 45.31404359 -46.79009435 49.05554747 -50.53082275 52.79845428 C-51.32885415 53.59694538 -51.32885415 53.59694538 -52.1430074 54.41156761 C-53.22370135 55.492901 -54.3043908 56.57423888 -55.38507581 57.65558121 C-65.5210159 67.79722577 -75.66307992 77.93272832 -85.80724263 88.0661473 C-94.51885437 96.76881827 -103.2252017 105.476727 -111.92773438 114.18847656 C-122.02755397 124.29898787 -132.13059547 134.40626143 -142.23883629 144.50835395 C-143.31562081 145.58450135 -144.39240115 146.66065295 -145.46917725 147.73680878 C-145.99901502 148.266338 -146.52885279 148.79586722 -147.07474625 149.34144278 C-150.81569778 153.08066445 -154.5543173 156.82220813 -158.29205322 160.56464386 C-162.84302463 165.12121167 -167.39751599 169.67422503 -171.95662355 174.2226527 C-174.28442197 176.54517842 -176.61002175 178.86983295 -178.93242645 181.19775391 C-181.44500602 183.71575298 -183.96359006 186.22758269 -186.48388672 188.737854 C-187.22375887 189.4821876 -187.96363102 190.22652119 -188.72592354 190.99341035 C-189.73326451 191.99292808 -189.73326451 191.99292808 -190.76095581 193.01263809 C-191.63306607 193.8842613 -191.63306607 193.8842613 -192.52279472 194.77349305 C-194 196 -194 196 -196 196 C-194.6397228 192.96100234 -193.10977559 190.85940508 -190.76095581 188.50927353 C-189.75361484 187.49410931 -189.75361484 187.49410931 -188.72592354 186.45843673 C-187.98605139 185.72302602 -187.24617924 184.98761531 -186.48388672 184.22991943 C-185.69954695 183.44245968 -184.91520718 182.65499993 -184.10709953 181.84367776 C-181.4693808 179.19796158 -178.82454649 176.55947528 -176.1796875 173.92089844 C-174.29061875 172.02912065 -172.40194339 170.13695742 -170.51373291 168.24432373 C-165.91210396 163.63379588 -161.3050774 159.02869821 -156.69610071 154.42551681 C-152.95202688 150.68595641 -149.20990565 146.94445253 -145.46917725 143.20154572 C-144.67114585 142.40305462 -144.67114585 142.40305462 -143.8569926 141.58843239 C-142.77629865 140.507099 -141.6956092 139.42576112 -140.61492419 138.34441879 C-130.4789841 128.20277423 -120.33692008 118.06727168 -110.19275737 107.9338527 C-101.48114563 99.23118173 -92.7747983 90.523273 -84.07226562 81.81152344 C-73.97244603 71.70101213 -63.86940453 61.59373857 -53.76116371 51.49164605 C-52.68437919 50.41549865 -51.60759885 49.33934705 -50.53082275 48.26319122 C-50.00098498 47.733662 -49.47114721 47.20413278 -48.92525375 46.65855722 C-45.18430222 42.91933555 -41.4456827 39.17779187 -37.70794678 35.43535614 C-33.15697537 30.87878833 -28.60248401 26.32577497 -24.04337645 21.7773473 C-21.71557803 19.45482158 -19.38997825 17.13016705 -17.06757355 14.80224609 C-14.55499398 12.28424702 -12.03640994 9.77241731 -9.51611328 7.262146 C-8.40630506 6.14564561 -8.40630506 6.14564561 -7.27407646 5.00658965 C-6.60251581 4.3402445 -5.93095516 3.67389934 -5.23904419 2.98736191 C-4.65763735 2.40627977 -4.07623051 1.82519763 -3.47720528 1.22650695 C-2 0 -2 0 0 0 Z " fill="#BABABA" transform="translate(320,66)"/>
<path d="M0 0 C5.28 0 10.56 0 16 0 C16 0.66 16 1.32 16 2 C16.78375 2.28875 17.5675 2.5775 18.375 2.875 C21 4 21 4 23 6 C23.37109375 8.71484375 23.37109375 8.71484375 23.4375 11.9375 C23.47746094 12.99839844 23.51742187 14.05929687 23.55859375 15.15234375 C23 18 23 18 20.61328125 19.7421875 C19.31970703 20.36480469 19.31970703 20.36480469 18 21 C17.2575 21.721875 16.515 22.44375 15.75 23.1875 C11.72997253 25.83706356 8.75370191 25.2838031 4 25 C4 30.28 4 35.56 4 41 C2.02 41.495 2.02 41.495 0 42 C0 28.14 0 14.28 0 0 Z " fill="#2E2E2E" transform="translate(222,307)"/>
<path d="M0 0 C3.86376953 0.79443359 3.86376953 0.79443359 5.08984375 2.64453125 C5.36957031 3.35996094 5.64929688 4.07539063 5.9375 4.8125 C6.26621094 5.62589844 6.59492188 6.43929688 6.93359375 7.27734375 C7.28550781 8.17582031 7.63742188 9.07429688 8 10 C8.83194454 11.95892373 9.66533338 13.91723456 10.5 15.875 C12.50814793 20.71309179 14.35557128 25.59039897 16.10546875 30.52734375 C16.72716386 32.24582847 17.40064979 33.94609582 18.11328125 35.62890625 C19 38 19 38 19 41 C17.140625 40.73828125 17.140625 40.73828125 15 40 C13.734375 38.29296875 13.734375 38.29296875 12.75 36.1875 C12.41484375 35.50042969 12.0796875 34.81335938 11.734375 34.10546875 C11 32 11 32 11 28 C4.73 28 -1.54 28 -8 28 C-8.66 31.3 -9.32 34.6 -10 38 C-10.66 38 -11.32 38 -12 38 C-12.33 38.99 -12.66 39.98 -13 41 C-13.99 41 -14.98 41 -16 41 C-15.58917418 36.07009017 -14.50691744 32.5244476 -12.1328125 28.1875 C-10.58406624 25.19681756 -9.30139472 22.10361123 -8 19 C-7.67354492 18.22672363 -7.34708984 17.45344727 -7.01074219 16.65673828 C-5.94268063 14.12615499 -4.87727438 11.59446801 -3.8125 9.0625 C-3.26045898 7.75055664 -3.26045898 7.75055664 -2.69726562 6.41210938 C-1.79797151 4.27482597 -0.89888761 2.1374544 0 0 Z " fill="#B2B2B2" transform="translate(148,307)"/>
<path d="M0 0 C13.91891892 0 13.91891892 0 19 4 C21.94376599 7.41856695 22.53900646 10.49211711 22.3515625 15.0078125 C21.75600443 18.38264157 20.20327753 20.43943422 18 23 C13 26 13 26 0 26 C0 17.42 0 8.84 0 0 Z " fill="#292929" transform="translate(239,184)"/>
<path d="M0 0 C13.77777778 0 13.77777778 0 19 4 C20.97289835 6.16101191 21.92708402 7.40368713 22.28515625 10.33203125 C21.70171049 16.83182174 19.96965437 20.68945099 15 25 C10.51793698 27.24103151 5.01109879 26 0 26 C0 17.42 0 8.84 0 0 Z " fill="#292929" transform="translate(182,101)"/>
<path d="M0 0 C7.92 0 15.84 0 24 0 C24 0.66 24 1.32 24 2 C24.886875 2.226875 25.77375 2.45375 26.6875 2.6875 C30.95434135 4.37813525 33.92493804 6.84987609 36 11 C36.75224506 16.65612107 36.85804699 21.60342417 33.5625 26.4375 C29.17385059 31.41948663 24.36631085 33.75694507 17.75390625 34.234375 C14.8229144 34.24818415 11.92504992 34.17817563 9 34 C9 33.67 9 33.34 9 33 C9.6290625 33.00902344 10.258125 33.01804688 10.90625 33.02734375 C17.26334948 32.80714301 20.82901428 31.45186771 25.37109375 26.96484375 C28.49964988 23.1910698 29.71996459 19.75022133 30.5 14.875 C29.58703496 9.62545103 25.16287639 6.92943153 21 4 C21.33 3.01 21.66 2.02 22 1 C15.07 1 8.14 1 1 1 C1 1.99 1 2.98 1 4 C1.99 4 2.98 4 4 4 C4 18.85 4 33.7 4 49 C3.01 48.67 2.02 48.34 1 48 C1.66 48 2.32 48 3 48 C3 33.81 3 19.62 3 5 C2.01 5 1.02 5 0 5 C0 3.35 0 1.7 0 0 Z " fill="#B4B4B4" transform="translate(173,97)"/>
<path d="M0 0 C5.28 0 10.56 0 16 0 C16 0.66 16 1.32 16 2 C16.78375 2.28875 17.5675 2.5775 18.375 2.875 C21 4 21 4 23 6 C23.37109375 8.71484375 23.37109375 8.71484375 23.4375 11.9375 C23.47746094 12.99839844 23.51742187 14.05929687 23.55859375 15.15234375 C23 18 23 18 20.59765625 19.75390625 C19.74042969 20.16511719 18.88320312 20.57632812 18 21 C17.34 21.66 16.68 22.32 16 23 C12.4080695 24.33034463 8.78529987 24.07279423 5 24 C7.01967752 22.9180299 8.64889294 22.04530414 10.9375 21.75 C14.34096559 20.51237615 16.31466236 18.09199741 18 15 C18.7333436 11.91530071 18.5330206 10.25142564 18 7 C13.82326448 2.68403997 9.18914093 3.61891409 3 3 C3 15.87 3 28.74 3 42 C2.01 42 1.02 42 0 42 C0 28.14 0 14.28 0 0 Z " fill="#B3B3B3" transform="translate(222,307)"/>
<path d="M0 0 C4.54939043 0.45842865 4.54939043 0.45842865 6.5456543 2.85766602 C6.96758057 3.64842529 7.38950684 4.43918457 7.82421875 5.25390625 C8.29537109 6.10791016 8.76652344 6.96191406 9.25195312 7.84179688 C9.72568359 8.73962891 10.19941406 9.63746094 10.6875 10.5625 C11.64323089 12.33815408 12.60513869 14.11050223 13.57421875 15.87890625 C14.20203247 17.06335327 14.20203247 17.06335327 14.8425293 18.27172852 C15.22449463 18.84205811 15.60645996 19.4123877 16 20 C16.66 20 17.32 20 18 20 C18.29245605 19.4652002 18.58491211 18.93040039 18.88623047 18.37939453 C20.21226264 15.95929377 21.54356111 13.5421301 22.875 11.125 C23.33519531 10.28324219 23.79539063 9.44148438 24.26953125 8.57421875 C24.71425781 7.76855469 25.15898437 6.96289062 25.6171875 6.1328125 C26.02565918 5.38918457 26.43413086 4.64555664 26.85498047 3.87939453 C28 2 28 2 30 0 C30.99 0 31.98 0 33 0 C31.72423646 4.95862809 29.39096251 8.62104855 26.60644531 12.82910156 C20.11775149 22.72730215 17.13410167 30.07724606 18 42 C17.01 42 16.02 42 15 42 C15 36.39 15 30.78 15 25 C14.01 24.67 13.02 24.34 12 24 C10.8125 20.4375 10.8125 20.4375 10 17 C9.34 17 8.68 17 8 17 C6.65869239 14.73354942 5.32683766 12.46239903 4 10.1875 C3.42765625 9.22360352 3.42765625 9.22360352 2.84375 8.24023438 C0 3.33984375 0 3.33984375 0 0 Z " fill="#B4B4B4" transform="translate(172,307)"/>
<path d="M0 0 C-1.39038759 3.13349687 -3.0074226 5.25516164 -5.42947388 7.66998291 C-6.13901215 8.38227051 -6.84855042 9.09455811 -7.57958984 9.82843018 C-8.35786133 10.59951111 -9.13613281 11.37059204 -9.93798828 12.16503906 C-10.75758026 12.9849231 -11.57717224 13.80480713 -12.42160034 14.64953613 C-15.13312432 17.35966624 -17.85166492 20.06264248 -20.5703125 22.765625 C-22.4511917 24.64277429 -24.33167487 26.520312 -26.2116394 28.39837646 C-30.65582026 32.83634406 -35.10507422 37.26918925 -39.55617607 41.70021415 C-44.62415976 46.74583409 -49.68645771 51.79714216 -54.74828744 56.84893465 C-65.15921229 67.23896097 -75.57725506 77.62183072 -86 88 C-86.66 87.34 -87.32 86.68 -88 86 C-76.82759998 74.78093407 -65.64952171 63.56755946 -54.46460152 52.36097717 C-49.27169343 47.15774486 -44.08067941 41.95264866 -38.89404297 36.74316406 C-34.37476534 32.20398758 -29.85201436 27.66830628 -25.32501113 23.13683414 C-22.92685632 20.73606599 -20.53050915 18.33355268 -18.13830948 15.92684937 C-15.47065902 13.24477953 -12.79691584 10.56893389 -10.12158203 7.89453125 C-9.32460907 7.09036774 -8.52763611 6.28620422 -7.70651245 5.45767212 C-6.98014587 4.73405487 -6.2537793 4.01043762 -5.50540161 3.26489258 C-4.87305162 2.63069901 -4.24070164 1.99650543 -3.58918953 1.34309387 C-2 0 -2 0 0 0 Z " fill="#B3B3B3" transform="translate(320,66)"/>
<path d="M0 0 C10.56 0 21.12 0 32 0 C32 0.99 32 1.98 32 3 C27.38 3 22.76 3 18 3 C18 15.87 18 28.74 18 42 C16.68 42 15.36 42 14 42 C14 29.13 14 16.26 14 3 C9.38 3 4.76 3 0 3 C0 2.01 0 1.02 0 0 Z " fill="#A0A0A0" transform="translate(319,307)"/>
<path d="M0 0 C9 0 9 0 12.5625 1.5 C15 4 15 4 15.6875 7.9375 C15.42475786 11.21872161 14.93483729 12.08816132 12.875 14.875 C8.56935915 18.05743019 5.33317876 19 0 19 C0 12.73 0 6.46 0 0 Z " fill="#242424" transform="translate(104,310)"/>
<path d="M0 0 C3.89577024 -0.05821935 7.79142802 -0.0936703 11.6875 -0.125 C12.79029297 -0.14175781 13.89308594 -0.15851563 15.02929688 -0.17578125 C16.09599609 -0.18222656 17.16269531 -0.18867188 18.26171875 -0.1953125 C19.73064575 -0.21102295 19.73064575 -0.21102295 21.22924805 -0.22705078 C26.5404174 0.20817589 30.12217824 2.43659622 34 6 C36.9119996 10.66731643 36.62553804 15.67906528 36 21 C33.82147671 25.43773264 31.06963864 28.21551041 27 31 C26.34 31 25.68 31 25 31 C24.67 29.68 24.34 28.36 24 27 C24.99 26.67 25.98 26.34 27 26 C28.15521502 23.52869082 28.15521502 23.52869082 29 21 C29.33 20.67 29.66 20.34 30 20 C30.535396 13.59326174 30.535396 13.59326174 28 8 C26.29618026 6.86691791 24.5671754 5.87744373 22.75390625 4.9296875 C21 4 21 4 18 2 C16.07255631 1.6373883 16.07255631 1.6373883 13.98828125 1.5859375 C13.23095703 1.54726562 12.47363281 1.50859375 11.69335938 1.46875 C10.90767578 1.4378125 10.12199219 1.406875 9.3125 1.375 C8.11657227 1.31699219 8.11657227 1.31699219 6.89648438 1.2578125 C4.93136525 1.16367506 2.9657146 1.08075368 1 1 C1 1.66 1 2.32 1 3 C1.99 3.33 2.98 3.66 4 4 C2.68 4 1.36 4 0 4 C0 2.68 0 1.36 0 0 Z " fill="#CACACA" transform="translate(230,181)"/>
<path d="M0 0 C5.32024385 4.3350135 8.8482612 11.36155353 9.8125 18.125 C9.874375 19.07375 9.93625 20.0225 10 21 C8.140625 20.73828125 8.140625 20.73828125 6 20 C4.734375 18.29296875 4.734375 18.29296875 3.75 16.1875 C3.41484375 15.50042969 3.0796875 14.81335938 2.734375 14.10546875 C2 12 2 12 2 8 C-4.27 8 -10.54 8 -17 8 C-17.66 11.3 -18.32 14.6 -19 18 C-19.66 18 -20.32 18 -21 18 C-21.33 18.99 -21.66 19.98 -22 21 C-22.99 21 -23.98 21 -25 21 C-24.57785989 15.93431873 -23.38204549 12.34135048 -20.98828125 7.8671875 C-19.81059621 5.64215411 -18.88336356 3.35563615 -18 1 C-17.01 1 -16.02 1 -15 1 C-15 2.32 -15 3.64 -15 5 C-10.05 5 -5.1 5 0 5 C0 3.35 0 1.7 0 0 Z " fill="#BEBEBE" transform="translate(157,327)"/>
<path d="M0 0 C1.65595649 0.53476391 3.31222388 1.06856574 4.96875 1.6015625 C9.32944702 3.02071929 13.66794598 4.49581458 18 6 C18 6.66 18 7.32 18 8 C18.87140625 8.25910156 19.7428125 8.51820312 20.640625 8.78515625 C24.02615232 10.00945741 26.7266987 11.4957388 29.75 13.4375 C30.69359375 14.03433594 31.6371875 14.63117188 32.609375 15.24609375 C35 17 35 17 37 20 C33.33257944 19.45432843 31.07808617 18.59277958 28.125 16.375 C15.83050638 7.8571121 1.98516155 3.46742266 -12.64428711 1.08886719 C-17.78734334 0.21265666 -17.78734334 0.21265666 -20 -2 C-22.91439596 -2.20430817 -25.71115129 -2.28182981 -28.625 -2.25 C-29.88824097 -2.24419922 -29.88824097 -2.24419922 -31.17700195 -2.23828125 C-39.21294771 -2.12963641 -47.06648182 -1.22559177 -55 0 C-41.01960497 -9.32026335 -14.91088791 -5.0356946 0 0 Z " fill="#929292" transform="translate(250,61)"/>
<path d="M0 0 C0.99 0 1.98 0 3 0 C3 12.54 3 25.08 3 38 C9.6 38 16.2 38 23 38 C23.33 38.99 23.66 39.98 24 41 C16.08 41 8.16 41 0 41 C0 27.47 0 13.94 0 0 Z " fill="#B9B9B9" transform="translate(262,308)"/>
<path d="M0 0 C0.33 0 0.66 0 1 0 C1.02578125 1.28390625 1.0515625 2.5678125 1.078125 3.890625 C1.72787507 26.75179783 5.51216156 50.47457924 20.3125 68.875 C22 71 22 71 22 74 C15.37748927 71.79249642 10.95617957 60.11589755 7.75 54.0625 C2.76545297 43.83535036 -0.14987632 32.67303853 -0.09765625 21.2890625 C-0.09443359 20.04511719 -0.09121094 18.80117187 -0.08789062 17.51953125 C-0.07951172 16.23433594 -0.07113281 14.94914063 -0.0625 13.625 C-0.05798828 12.31660156 -0.05347656 11.00820312 -0.04882812 9.66015625 C-0.03707594 6.44005719 -0.02064543 3.2200523 0 0 Z " fill="#B8B8B8" transform="translate(116,154)"/>
<path d="M0 0 C3 1 3 1 4.60546875 3.58203125 C5.12753906 4.64808594 5.64960938 5.71414063 6.1875 6.8125 C6.71730469 7.87082031 7.24710938 8.92914063 7.79296875 10.01953125 C9 13 9 13 9 17 C4.05 17 -0.9 17 -6 17 C-5.06194224 13.24776897 -3.84103036 9.8487958 -2.4375 6.25 C-1.98246094 5.07953125 -1.52742187 3.9090625 -1.05859375 2.703125 C-0.53458984 1.36507813 -0.53458984 1.36507813 0 0 Z " fill="#353535" transform="translate(148,315)"/>
<path d="M0 0 C4.62 0 9.24 0 14 0 C14 0.33 14 0.66 14 1 C10.37 1 6.74 1 3 1 C3 14.2 3 27.4 3 41 C2.01 41 1.02 41 0 41 C0 27.47 0 13.94 0 0 Z " fill="#C6C6C6" transform="translate(222,308)"/>
<path d="M0 0 C4.62 0 9.24 0 14 0 C14 0.33 14 0.66 14 1 C10.37 1 6.74 1 3 1 C3 13.87 3 26.74 3 40 C2.01 40 1.02 40 0 40 C0 26.8 0 13.6 0 0 Z " fill="#C1C1C1" transform="translate(100,308)"/>
<path d="M0 0 C3.95465645 1.31821882 5.13406328 3.7482837 7.25 7.125 C7.6433252 7.74592529 8.03665039 8.36685059 8.44189453 9.0065918 C22.96383525 32.48206415 22.96383525 32.48206415 21.6875 41.11328125 C21 43 21 43 19 45 C18.86013672 44.4423999 18.72027344 43.8847998 18.57617188 43.31030273 C15.15198383 29.91220362 11.55518832 16.43403968 2.25390625 5.77734375 C0 3 0 3 0 0 Z " fill="#989898" transform="translate(304,98)"/>
<path d="M0 0 C0.99 0 1.98 0 3 0 C3 13.2 3 26.4 3 40 C2.01 40 1.02 40 0 40 C0 26.8 0 13.6 0 0 Z " fill="#C3C3C3" transform="translate(300,308)"/>
<path d="M0 0 C3.79419574 1.38095052 6.951004 3.14697515 10.3125 5.375 C21.63273207 12.67496274 32.94969884 16.84105076 46.2265625 19.2890625 C47.14179688 19.52367187 48.05703125 19.75828125 49 20 C49.495 20.99 49.495 20.99 50 22 C33.15109559 22.59642139 12.56783353 13.17812117 0 2 C0 1.34 0 0.68 0 0 Z " fill="#B5B5B5" transform="translate(157,247)"/>
<path d="M0 0 C0.66 0 1.32 0 2 0 C2 11.88 2 23.76 2 36 C7.94 36 13.88 36 20 36 C20 36.66 20 37.32 20 38 C13.4 38 6.8 38 0 38 C0 25.46 0 12.92 0 0 Z " fill="#525252" transform="translate(265,308)"/>
<path d="M0 0 C4.55404611 0.45846423 4.55404611 0.45846423 6.52978516 2.85766602 C6.94534668 3.64842529 7.3609082 4.43918457 7.7890625 5.25390625 C8.25570312 6.10791016 8.72234375 6.96191406 9.203125 7.84179688 C9.67234375 8.73962891 10.1415625 9.63746094 10.625 10.5625 C11.56526051 12.34010062 12.51529496 14.11257715 13.4765625 15.87890625 C13.88986816 16.6685376 14.30317383 17.45816895 14.72900391 18.27172852 C15.14843262 18.84205811 15.56786133 19.4123877 16 20 C16.99 20 17.98 20 19 20 C18.67 20.99 18.34 21.98 18 23 C16.68 22.34 15.36 21.68 14 21 C13.67 22.32 13.34 23.64 13 25 C10 19.25 10 19.25 10 17 C9.34 17 8.68 17 8 17 C6.65869239 14.73354942 5.32683766 12.46239903 4 10.1875 C3.42765625 9.22360352 3.42765625 9.22360352 2.84375 8.24023438 C0 3.33984375 0 3.33984375 0 0 Z " fill="#9F9F9F" transform="translate(172,307)"/>
<path d="M0 0 C6.0546875 -0.1953125 6.0546875 -0.1953125 8 0 C8.66 0.66 9.32 1.32 10 2 C9.43181818 7.56818182 9.43181818 7.56818182 8 9 C6.33382885 9.04063832 4.66611905 9.042721 3 9 C3 10.98 3 12.96 3 15 C2.01 15 1.02 15 0 15 C0 10.05 0 5.1 0 0 Z " fill="#898989" transform="translate(144,378)"/>
<path d="M0 0 C0.99 0 1.98 0 3 0 C5.37113483 4.96284034 7.43174347 9.45949887 8 15 C7.01 14.67 6.02 14.34 5 14 C5 13.01 5 12.02 5 11 C2.69 11 0.38 11 -2 11 C-2 12.32 -2 13.64 -2 15 C-2.99 15 -3.98 15 -5 15 C-4.43174347 9.45949887 -2.37113483 4.96284034 0 0 Z " fill="#9F9F9F" transform="translate(246,378)"/>
<path d="M0 0 C4.875 1.75 4.875 1.75 6 4 C6.79160144 10.67206925 6.79160144 10.67206925 4.80078125 14.01171875 C2.18557783 17.15391531 -0.14601268 19.48176257 -4 21 C-6.140625 21.1953125 -6.140625 21.1953125 -8.25 21.125 C-9.4875 21.08375 -10.725 21.0425 -12 21 C-9.98032248 19.9180299 -8.35110706 19.04530414 -6.0625 18.75 C-2.66788008 17.51559276 -0.66560314 15.09802185 1 12 C1.69760934 7.96161703 1.29694593 3.89083779 0 0 Z " fill="#BBBBBB" transform="translate(117,310)"/>
<path d="M0 0 C1 2 1 2 0 6 C6.6 6 13.2 6 20 6 C20 6.33 20 6.66 20 7 C13.73 7 7.46 7 1 7 C0.34 10.3 -0.32 13.6 -1 17 C-1.66 17 -2.32 17 -3 17 C-3.33 17.99 -3.66 18.98 -4 20 C-4.99 20 -5.98 20 -7 20 C-6.57785989 14.93431873 -5.38204549 11.34135048 -2.98828125 6.8671875 C-1.81059621 4.64215411 -0.88336356 2.35563615 0 0 Z " fill="#959595" transform="translate(139,328)"/>
<path d="M0 0 C2.64 0 5.28 0 8 0 C8 0.66 8 1.32 8 2 C6.02 2 4.04 2 2 2 C3.0730872 4.59329406 3.76301998 5.83968999 6.125 7.4375 C8 9 8 9 8.375 11.5625 C8 14 8 14 6 16 C2.375 16.125 2.375 16.125 -1 16 C-1 15.01 -1 14.02 -1 13 C0.98 13 2.96 13 5 13 C2.27809315 8.77895001 2.27809315 8.77895001 -1 5 C-0.625 2.375 -0.625 2.375 0 0 Z " fill="#A1A1A1" transform="translate(263,378)"/>
<path d="M0 0 C0.33 1.32 0.66 2.64 1 4 C1.66 3.01 2.32 2.02 3 1 C3.12549613 8.52976753 3.12549613 8.52976753 2.51367188 10.82226562 C1.94245834 13.24395037 1.78967552 15.4990307 1.68359375 17.984375 C1.64169922 18.91894531 1.59980469 19.85351562 1.55664062 20.81640625 C1.51732422 21.78449219 1.47800781 22.75257813 1.4375 23.75 C1.39431641 24.73355469 1.35113281 25.71710938 1.30664062 26.73046875 C1.20077948 29.15351275 1.09869829 31.5766554 1 34 C-0.485 34.495 -0.485 34.495 -2 35 C-2.05880857 31.04173069 -2.09386513 27.08357608 -2.125 23.125 C-2.14175781 22.01640625 -2.15851563 20.9078125 -2.17578125 19.765625 C-2.21604215 12.92127221 -1.66732206 6.64485173 0 0 Z " fill="#7D7D7D" transform="translate(117,141)"/>
<path d="M0 0 C3.54317696 5.31476544 4.25338034 10.62986829 4.265625 16.921875 C4.26820313 18.19417969 4.27078125 19.46648437 4.2734375 20.77734375 C4.26570313 22.08832031 4.25796875 23.39929688 4.25 24.75 C4.25713202 26.08984754 4.26493888 27.42969168 4.2734375 28.76953125 C4.26957031 30.67025391 4.26957031 30.67025391 4.265625 32.609375 C4.26336914 33.76405273 4.26111328 34.91873047 4.25878906 36.10839844 C4 39 4 39 2 42 C1.97494385 41.11852295 1.9498877 40.2370459 1.92407227 39.32885742 C1.82797904 36.00568796 1.72881599 32.68263771 1.62768555 29.35961914 C1.5848206 27.93126918 1.54312034 26.50288371 1.50268555 25.07446289 C1.26438617 16.68691332 0.90414029 8.34804381 0 0 Z " fill="#B9B9B9" transform="translate(324,138)"/>
<path d="M0 0 C2.64 0 5.28 0 8 0 C8 0.66 8 1.32 8 2 C6.02 2 4.04 2 2 2 C3.0730872 4.59329406 3.76301998 5.83968999 6.125 7.4375 C8 9 8 9 8.375 11.5625 C8 14 8 14 6 16 C2.375 16.125 2.375 16.125 -1 16 C-1 15.01 -1 14.02 -1 13 C0.98 13 2.96 13 5 13 C5 11.68 5 10.36 5 9 C4.071875 8.566875 4.071875 8.566875 3.125 8.125 C1 7 1 7 -1 5 C-0.625 2.375 -0.625 2.375 0 0 Z " fill="#8E8E8E" transform="translate(127,378)"/>
<path d="M0 0 C3.96 0 7.92 0 12 0 C12 0.99 12 1.98 12 3 C10.68 3 9.36 3 8 3 C8 7.29 8 11.58 8 16 C7.01 16 6.02 16 5 16 C5 11.71 5 7.42 5 3 C3.35 3 1.7 3 0 3 C0 2.01 0 1.02 0 0 Z " fill="#878787" transform="translate(191,377)"/>
<path d="M0 0 C2.10369035 2.10369035 2.9551219 3.99914591 4.06640625 6.72265625 C4.79975193 8.51152877 5.5640883 10.28770011 6.33984375 12.05859375 C6.80519531 13.13238281 7.27054688 14.20617187 7.75 15.3125 C8.19859375 16.33988281 8.6471875 17.36726563 9.109375 18.42578125 C9.40328125 19.27527344 9.6971875 20.12476563 10 21 C9.67 21.66 9.34 22.32 9 23 C5.31350436 19.49782914 2.29701684 15.987092 0.375 11.25 C-0.61915311 7.91980434 -0.61915311 7.91980434 -3 7 C-3 6.34 -3 5.68 -3 5 C-1.68 5.33 -0.36 5.66 1 6 C0.67 4.02 0.34 2.04 0 0 Z " fill="#9D9D9D" transform="translate(151,308)"/>
<path d="M0 0 C0.66 0.33 1.32 0.66 2 1 C-11.77319753 17.11757158 -11.77319753 17.11757158 -20 22 C-20.99 22 -21.98 22 -23 22 C-21.74232454 18.22697363 -20.39355504 17.6852096 -17.125 15.5 C-10.68625441 10.97684451 -5.39728192 5.67915158 0 0 Z " fill="#B9B9B9" transform="translate(302,231)"/>
<path d="M0 0 C9.57 0 19.14 0 29 0 C29 0.33 29 0.66 29 1 C22.565 1.495 22.565 1.495 16 2 C15.67 14.21 15.34 26.42 15 39 C14.67 39 14.34 39 14 39 C13.67 26.79 13.34 14.58 13 2 C8.71 1.67 4.42 1.34 0 1 C0 0.67 0 0.34 0 0 Z " fill="#D6D6D6" transform="translate(320,308)"/>
<path d="M0 0 C1.98 0.99 3.96 1.98 6 3 C5.67 9.27 5.34 15.54 5 22 C4.01 22 3.02 22 2 22 C1.90912109 20.24623047 1.90912109 20.24623047 1.81640625 18.45703125 C1.73195966 16.90884386 1.64731375 15.36066732 1.5625 13.8125 C1.52318359 13.04357422 1.48386719 12.27464844 1.44335938 11.48242188 C1.22492966 7.56748925 0.91307892 3.82879312 0 0 Z " fill="#C4C4C4" transform="translate(185,327)"/>
<path d="M0 0 C0.99 0 1.98 0 3 0 C3 4.29 3 8.58 3 13 C4.98 13 6.96 13 9 13 C9 13.99 9 14.98 9 16 C6.03 16 3.06 16 0 16 C0 10.72 0 5.44 0 0 Z " fill="#7A7A7A" transform="translate(163,378)"/>
<path d="M0 0 C2.64 0 5.28 0 8 0 C8 0.66 8 1.32 8 2 C6.35 2 4.7 2 3 2 C3 3.32 3 4.64 3 6 C4.32 6.33 5.64 6.66 7 7 C5.68 7 4.36 7 3 7 C3 9.31 3 11.62 3 14 C4.65 14 6.3 14 8 14 C8 14.33 8 14.66 8 15 C5.36 15 2.72 15 0 15 C0 10.05 0 5.1 0 0 Z " fill="#8D8D8D" transform="translate(225,378)"/>
<path d="M0 0 C0.66 0.33 1.32 0.66 2 1 C2.13504138 2.93559313 2.23201129 4.873872 2.3125 6.8125 C2.37050781 7.89144531 2.42851562 8.97039062 2.48828125 10.08203125 C2 13 2 13 -0.39453125 14.76171875 C-1.25433594 15.17035156 -2.11414063 15.57898438 -3 16 C-3.66 16.66 -4.32 17.32 -5 18 C-8.5919305 19.33034463 -12.21470013 19.07279423 -16 19 C-13.98032248 17.9180299 -12.35110706 17.04530414 -10.0625 16.75 C-6.70200255 15.52800093 -4.76295056 12.99569043 -3 10 C-2.11994663 6.27302782 -2.11994663 6.27302782 -2 3 C-1.67 3 -1.34 3 -1 3 C-1 5.64 -1 8.28 -1 11 C-0.34 11 0.32 11 1 11 C0.67 7.37 0.34 3.74 0 0 Z " fill="#A6A6A6" transform="translate(243,312)"/>
<path d="M0 0 C1.32236024 3.96708072 0.28010365 5.39835977 -1.25 9.25 C-4.05703586 16.74064166 -5.64271048 24.12109983 -7 32 C-7.33 32 -7.66 32 -8 32 C-7.65217391 7.65217391 -7.65217391 7.65217391 0 0 Z " fill="#B3B3B3" transform="translate(125,120)"/>
<path d="M0 0 C3 1 3 1 4.0625 3 C4.371875 3.66 4.68125 4.32 5 5 C5.66 5.33 6.32 5.66 7 6 C7.4021875 4.7934375 7.4021875 4.7934375 7.8125 3.5625 C8.204375 2.716875 8.59625 1.87125 9 1 C9.99 0.67 10.98 0.34 12 0 C11.52994768 2.53828252 10.89404485 4.16776233 9.5 6.375 C7.83402659 9.29045347 7.385152 11.68769281 7 15 C6.34 15 5.68 15 5 15 C4.51171875 13.01432292 4.0234375 11.02864583 3.53515625 9.04296875 C3.08989295 7.34316798 2.55566015 5.66698046 2 4 C1.34 4 0.68 4 0 4 C0 2.68 0 1.36 0 0 Z " fill="#9C9C9C" transform="translate(307,378)"/>
<path d="M0 0 C2.24151882 2.24151882 2.96301325 4.0067112 4.125 6.9375 C4.47820312 7.81277344 4.83140625 8.68804687 5.1953125 9.58984375 C6 12 6 12 6 15 C3.42201159 14.63636795 2.30835927 14.40466367 0.69921875 12.29296875 C0.36535156 11.59816406 0.03148437 10.90335937 -0.3125 10.1875 C-0.65925781 9.50042969 -1.00601563 8.81335938 -1.36328125 8.10546875 C-2.3294565 4.91057021 -1.45101229 2.90202457 0 0 Z " fill="#A6A6A6" transform="translate(161,333)"/>
<path d="M0 0 C4.14652239 1.38217413 5.41643907 4.26811593 7.625 7.8125 C8.03234375 8.44220703 8.4396875 9.07191406 8.859375 9.72070312 C12.54182983 15.53093401 12.54182983 15.53093401 13 19 C12.34 19.66 11.68 20.32 11 21 C10.62488281 20.20335938 10.24976563 19.40671875 9.86328125 18.5859375 C6.59912139 11.62922289 6.59912139 11.62922289 2.125 5.4375 C0 3 0 3 0 0 Z " fill="#A7A7A7" transform="translate(304,98)"/>
<path d="M0 0 C0.66 0.33 1.32 0.66 2 1 C-3.94 6.94 -9.88 12.88 -16 19 C-16.66 18.67 -17.32 18.34 -18 18 C-6.25 4.25 -6.25 4.25 0 0 Z " fill="#393939" transform="translate(158,81)"/>
<path d="M0 0 C0.99 0 1.98 0 3 0 C3 4.62 3 9.24 3 14 C4.98 14 6.96 14 9 14 C9 14.33 9 14.66 9 15 C6.03 15 3.06 15 0 15 C0 10.05 0 5.1 0 0 Z " fill="#8C8C8C" transform="translate(293,378)"/>
<path d="M0 0 C-1.375 1.5 -1.375 1.5 -3 3 C-3.66 3 -4.32 3 -5 3 C-5 3.66 -5 4.32 -5 5 C-6.28650706 5.69710731 -7.57940665 6.38242876 -8.875 7.0625 C-9.59429687 7.44535156 -10.31359375 7.82820313 -11.0546875 8.22265625 C-11.69664062 8.47917969 -12.33859375 8.73570312 -13 9 C-15 8 -15 8 -16 6 C-13.9021477 4.79994469 -11.7979751 3.61497017 -9.6875 2.4375 C-8.79514648 1.92413086 -8.79514648 1.92413086 -7.88476562 1.40039062 C-3.33984375 -1.11328125 -3.33984375 -1.11328125 0 0 Z " fill="#9C9C9C" transform="translate(280,253)"/>
<path d="M0 0 C-14.34799011 7.85078704 -14.34799011 7.85078704 -21.328125 6.57421875 C-21.87984375 6.38472656 -22.4315625 6.19523437 -23 6 C-17.75664459 3.65722418 -12.46483773 1.75806795 -7 0 C-3.86650268 -1.04449911 -3.01031744 -0.93423645 0 0 Z " fill="#B6B6B6" transform="translate(266,261)"/>
<path d="M0 0 C2.50037734 2.17424117 3.43628586 3.73045798 4 7 C1.69 7 -0.62 7 -3 7 C-3 8.32 -3 9.64 -3 11 C-3.99 11 -4.98 11 -6 11 C-5.28869023 5.54662512 -3.76706948 3.76706948 0 0 Z " fill="#767676" transform="translate(247,382)"/>
<path d="M0 0 C0.99 0 1.98 0 3 0 C3 4.95 3 9.9 3 15 C2.01 15 1.02 15 0 15 C0 10.05 0 5.1 0 0 Z " fill="#909090" transform="translate(180,378)"/>
<path d="M0 0 C0.99 0 1.98 0 3 0 C3 4.95 3 9.9 3 15 C2.01 15 1.02 15 0 15 C0 10.05 0 5.1 0 0 Z " fill="#8E8E8E" transform="translate(280,378)"/>
<path d="M0 0 C0.99 0.33 1.98 0.66 3 1 C-1.62 5.62 -6.24 10.24 -11 15 C-11.33 14.01 -11.66 13.02 -12 12 C-8.04 8.04 -4.08 4.08 0 0 Z " fill="#B4B4B4" transform="translate(152,83)"/>
<path d="M0 0 C1.54535407 0.06512987 3.08784786 0.20317333 4.625 0.375 C5.5221875 0.47425781 6.419375 0.57351562 7.34375 0.67578125 C10.571361 1.06973965 13.78546882 1.51083221 17 2 C17 2.99 17 3.98 17 5 C14.37348569 4.71880143 11.74930665 4.42556162 9.125 4.125 C8.37863281 4.04636719 7.63226563 3.96773437 6.86328125 3.88671875 C1.2265625 3.2265625 1.2265625 3.2265625 -1 1 C-0.67 0.67 -0.34 0.34 0 0 Z " fill="#A0A0A0" transform="translate(231,58)"/>
<path d="M0 0 C2.1151592 2.78643727 4.15484022 5.60911229 6.125 8.5 C6.64320313 9.2528125 7.16140625 10.005625 7.6953125 10.78125 C8.93935743 12.89687132 9.55329197 14.6030301 10 17 C6.13405555 15.71135185 5.47869434 14.14688337 3.3125 10.75 C2.68988281 9.79609375 2.06726563 8.8421875 1.42578125 7.859375 C-0.04676643 4.90621089 -0.31356645 3.24215873 0 0 Z " fill="#B1B1B1" transform="translate(128,211)"/>
<path d="M0 0 C-3.1622274 1.73169596 -6.26742722 2.7128976 -9.75 3.625 C-10.73484375 3.88539062 -11.7196875 4.14578125 -12.734375 4.4140625 C-13.85585937 4.70410156 -13.85585937 4.70410156 -15 5 C-15.33 4.01 -15.66 3.02 -16 2 C-10.20377279 -0.32637691 -6.13909603 -1.43680971 0 0 Z " fill="#9D9D9D" transform="translate(199,62)"/>
<path d="M0 0 C-1.41292095 4.8274799 -3.42974154 8.7162359 -6 13 C-6.33 13 -6.66 13 -7 13 C-6.19444444 0 -6.19444444 0 0 0 Z " fill="#CACACA" transform="translate(205,307)"/>
<path d="M0 0 C2 1 2 1 2.9375 3.375 C3.79496231 6.00776155 3.79496231 6.00776155 5.5625 7.5 C7.48593335 9.50706089 7.63468585 11.29667526 8 14 C4.66399418 11.73628177 2.20718158 9.38960028 0 6 C-0.25 2.6875 -0.25 2.6875 0 0 Z " fill="#B2B2B2" transform="translate(153,317)"/>
<path d="M0 0 C1.44715727 3.87186448 0.5441918 6.8232328 -0.4375 10.75 C-0.72496094 11.92046875 -1.01242187 13.0909375 -1.30859375 14.296875 C-1.53675781 15.18890625 -1.76492188 16.0809375 -2 17 C-4.53940725 13.19088912 -3.97694232 11.80541872 -3.25 7.375 C-3.06953125 6.20710937 -2.8890625 5.03921875 -2.703125 3.8359375 C-2.47109375 2.90007812 -2.2390625 1.96421875 -2 1 C-1.34 0.67 -0.68 0.34 0 0 Z " fill="#A3A3A3" transform="translate(327,177)"/>
<path d="M0 0 C0.99 0 1.98 0 3 0 C3.33 2.31 3.66 4.62 4 7 C2.68 6.67 1.36 6.34 0 6 C-0.33 7.32 -0.66 8.64 -1 10 C-1.33 10 -1.66 10 -2 10 C-1.54177532 6.53058454 -1.10868317 3.32604951 0 0 Z " fill="#C4C4C4" transform="translate(148,307)"/>
<path d="M0 0 C0.66 0 1.32 0 2 0 C2 1.65 2 3.3 2 5 C6.62 5 11.24 5 16 5 C16 5.33 16 5.66 16 6 C10.39 6 4.78 6 -1 6 C-0.67 4.02 -0.34 2.04 0 0 Z " fill="#CFCFCF" transform="translate(140,328)"/>
<path d="M0 0 C0.66 0.33 1.32 0.66 2 1 C2.6875 3.5 2.6875 3.5 3 6 C2 7 2 7 -1.5625 7.0625 C-2.696875 7.041875 -3.83125 7.02125 -5 7 C-5 6.01 -5 5.02 -5 4 C-3.02 4 -1.04 4 1 4 C0.67 2.68 0.34 1.36 0 0 Z " fill="#696969" transform="translate(267,387)"/>
<path d="M0 0 C1.0625 1.875 1.0625 1.875 2 4 C1.67 4.66 1.34 5.32 1 6 C-1.31 6 -3.62 6 -6 6 C-6 5.01 -6 4.02 -6 3 C-4.02 3 -2.04 3 0 3 C0 2.01 0 1.02 0 0 Z " fill="#696969" transform="translate(132,388)"/>
<path d="M0 0 C4.875 1.75 4.875 1.75 6 4 C6.13415472 6.6723621 6.04318541 9.32250488 6 12 C5.67 12 5.34 12 5 12 C4.731875 10.88625 4.46375 9.7725 4.1875 8.625 C3.34190981 4.78159049 3.34190981 4.78159049 0 3 C0 2.01 0 1.02 0 0 Z " fill="#AEAEAE" transform="translate(117,310)"/>
<path d="M0 0 C0.99 0.33 1.98 0.66 3 1 C2.67 1.99 2.34 2.98 2 4 C-1.28519475 5.09506492 -3.73663415 5.09960608 -7.1875 5.0625 C-8.81751953 5.04896484 -8.81751953 5.04896484 -10.48046875 5.03515625 C-11.31191406 5.02355469 -12.14335937 5.01195312 -13 5 C-13 4.67 -13 4.34 -13 4 C-12.31292969 3.96261719 -11.62585938 3.92523438 -10.91796875 3.88671875 C-10.01691406 3.82097656 -9.11585938 3.75523437 -8.1875 3.6875 C-7.29417969 3.62949219 -6.40085938 3.57148438 -5.48046875 3.51171875 C-2.69396 2.93686419 -1.75864246 2.1793144 0 0 Z " fill="#BDBDBD" transform="translate(195,126)"/>
<path d="M0 0 C0.66 0.99 1.32 1.98 2 3 C1.375 5.625 1.375 5.625 0 8 C-2.125 8.8125 -2.125 8.8125 -4 9 C-2.94124926 5.59687262 -1.99097846 2.98646769 0 0 Z " fill="#979797" transform="translate(128,112)"/>
<path d="M0 0 C1.97986082 0.11347619 3.95891598 0.2410935 5.9375 0.375 C7.03964844 0.44460938 8.14179688 0.51421875 9.27734375 0.5859375 C10.62505859 0.79089844 10.62505859 0.79089844 12 1 C12.33 1.66 12.66 2.32 13 3 C8.07872966 3.16682272 4.49656104 3.24828052 0 1 C0 0.67 0 0.34 0 0 Z " fill="#C1C1C1" transform="translate(194,266)"/>
<path d="M0 0 C2.64 0 5.28 0 8 0 C8 0.66 8 1.32 8 2 C6.02 2 4.04 2 2 2 C1.67 2.99 1.34 3.98 1 5 C0.34 5 -0.32 5 -1 5 C-0.67 3.35 -0.34 1.7 0 0 Z " fill="#7A7A7A" transform="translate(263,378)"/>
<path d="M0 0 C1.32 0 2.64 0 4 0 C4 1.65 4 3.3 4 5 C2.68 5.33 1.36 5.66 0 6 C0 4.02 0 2.04 0 0 Z " fill="#303030" transform="translate(147,380)"/>
<path d="M0 0 C3.96 0 7.92 0 12 0 C12 0.33 12 0.66 12 1 C9.69 1 7.38 1 5 1 C5 1.66 5 2.32 5 3 C3.35 3 1.7 3 0 3 C0 2.01 0 1.02 0 0 Z " fill="#4F4F4F" transform="translate(191,377)"/>
<path d="M0 0 C0.66 0 1.32 0 2 0 C2.36923077 4.55384615 2.36923077 4.55384615 0.5 6.8125 C0.005 7.204375 -0.49 7.59625 -1 8 C-1.625 5.6875 -1.625 5.6875 -2 3 C-1.34 2.01 -0.68 1.02 0 0 Z " fill="#BFBFBF" transform="translate(137,335)"/>
<path d="M0 0 C0.66 0.33 1.32 0.66 2 1 C0.02 3.31 -1.96 5.62 -4 8 C-4.99 7.67 -5.98 7.34 -7 7 C-4.69 4.69 -2.38 2.38 0 0 Z " fill="#BCBCBC" transform="translate(302,231)"/>
<path d="M0 0 C0.66 0.99 1.32 1.98 2 3 C0.68 5.31 -0.64 7.62 -2 10 C-2.99 9.34 -3.98 8.68 -5 8 C-3.35 5.36 -1.7 2.72 0 0 Z " fill="#AAAAAA" transform="translate(313,214)"/>
<path d="M0 0 C3 1 3 1 4.0625 2.9375 C4.371875 3.618125 4.68125 4.29875 5 5 C5.66 5.66 6.32 6.32 7 7 C5.35 6.67 3.7 6.34 2 6 C2 5.34 2 4.68 2 4 C1.34 4 0.68 4 0 4 C0 2.68 0 1.36 0 0 Z " fill="#8C8C8C" transform="translate(307,378)"/>
<path d="M0 0 C0.33 0 0.66 0 1 0 C0.91253716 1.43861294 0.80434652 2.87597508 0.6875 4.3125 C0.62949219 5.11300781 0.57148438 5.91351563 0.51171875 6.73828125 C-0.08206694 9.36272334 -0.95780294 10.30820672 -3 12 C-2.40075776 7.80530429 -1.42500059 3.99000166 0 0 Z " fill="#BDBDBD" transform="translate(323,191)"/>
<path d="M0 0 C-1.26418246 0.69965443 -2.53665402 1.38434763 -3.8125 2.0625 C-4.52019531 2.44535156 -5.22789062 2.82820313 -5.95703125 3.22265625 C-8 4 -8 4 -11 3 C-4.03571429 -1.41964286 -4.03571429 -1.41964286 0 0 Z " fill="#B5B5B5" transform="translate(185,66)"/>
<path d="M0 0 C1.32 0.33 2.64 0.66 4 1 C3.67 2.98 3.34 4.96 3 7 C2.01 6.67 1.02 6.34 0 6 C0 4.02 0 2.04 0 0 Z " fill="#959595" transform="translate(150,379)"/>
<path d="M0 0 C0.33 0.66 0.66 1.32 1 2 C-5.93 1.505 -5.93 1.505 -13 1 C-13 0.67 -13 0.34 -13 0 C-11.58456585 -0.19658808 -10.16755969 -0.38187546 -8.75 -0.5625 C-7.96109375 -0.66691406 -7.1721875 -0.77132813 -6.359375 -0.87890625 C-3.95874887 -1.00211719 -2.25079123 -0.83159765 0 0 Z " fill="#838383" transform="translate(245,267)"/>
<path d="M0 0 C3.93846154 3.32307692 3.93846154 3.32307692 4.25 6.75 C4.1675 7.4925 4.085 8.235 4 9 C3.01 8.34 2.02 7.68 1 7 C0.3125 3.375 0.3125 3.375 0 0 Z " fill="#D3D3D3" transform="translate(157,327)"/>
<path d="M0 0 C0.66 0.33 1.32 0.66 2 1 C-0.475 4.465 -0.475 4.465 -3 8 C-3.33 6.68 -3.66 5.36 -4 4 C-2.0625 1.75 -2.0625 1.75 0 0 Z " fill="#AFAFAF" transform="translate(133,106)"/>
<path d="M0 0 C0.99 0.495 0.99 0.495 2 1 C2 1.99 2 2.98 2 4 C2.66 4 3.32 4 4 4 C4 4.99 4 5.98 4 7 C2.68 6.67 1.36 6.34 0 6 C0 4.02 0 2.04 0 0 Z " fill="#C4C4C4" transform="translate(163,341)"/>
<path d="M0 0 C1.27351308 2.54702616 0.80191925 3.4282945 0.0625 6.125 C-0.13214844 6.84945313 -0.32679688 7.57390625 -0.52734375 8.3203125 C-0.68332031 8.87460937 -0.83929688 9.42890625 -1 10 C-1.66 9.01 -2.32 8.02 -3 7 C-1.59459459 1.59459459 -1.59459459 1.59459459 0 0 Z " fill="#A6A6A6" transform="translate(198,313)"/>
<path d="M0 0 C1.98 0.99 1.98 0.99 4 2 C3.67 3.65 3.34 5.3 3 7 C1.5 5.75 1.5 5.75 0 4 C0 2.68 0 1.36 0 0 Z " fill="#BFBFBF" transform="translate(181,320)"/>
<path d="M0 0 C2.4375 0.375 2.4375 0.375 5 1 C5.33 1.66 5.66 2.32 6 3 C5.34 3 4.68 3 4 3 C3.67 3.66 3.34 4.32 3 5 C2.01 4.34 1.02 3.68 0 3 C0 2.01 0 1.02 0 0 Z " fill="#BDBDBD" transform="translate(237,309)"/>
<path d="M0 0 C0.99 0 1.98 0 3 0 C2.34 1.32 1.68 2.64 1 4 C0.34 3.67 -0.32 3.34 -1 3 C-1 3.99 -1 4.98 -1 6 C-1.66 6 -2.32 6 -3 6 C-1.125 1.125 -1.125 1.125 0 0 Z " fill="#A6A6A6" transform="translate(202,307)"/>
<path d="M0 0 C0.99 0.33 1.98 0.66 3 1 C1.1875 3 1.1875 3 -1 5 C-1.99 5 -2.98 5 -4 5 C-3 2 -3 2 0 0 Z " fill="#B1B1B1" transform="translate(283,248)"/>
<path d="M0 0 C7.75 0.75 7.75 0.75 10 3 C7.69 3 5.38 3 3 3 C3 2.34 3 1.68 3 1 C2.01 0.67 1.02 0.34 0 0 Z " fill="#B2B2B2" transform="translate(245,61)"/>
</svg>
